<svg width="659" height="489" viewBox="0 0 659 489" fill="none" xmlns="http://www.w3.org/2000/svg">
<g clip-path="url(#clip0_1916_1781)">
<path opacity="0.1" d="M43.1315 191.662H100.407V270.056H47.3194C47.1839 270.866 47.0485 271.671 46.8961 272.481H100.407V335.692C100.317 335.692 100.226 335.624 100.142 335.59C98.6366 334.99 97.1315 334.353 95.6265 333.68C95.3047 333.533 94.9887 333.38 94.6613 333.238C93.1563 332.524 91.6512 331.769 90.1461 330.972C89.6212 330.694 89.0963 330.405 88.5827 330.11C80.2272 325.429 72.633 319.493 66.0631 312.508C65.8656 312.321 65.685 312.117 65.4987 311.941C64.5844 310.944 63.687 309.935 62.8178 308.904C62.4905 308.524 62.1744 308.139 61.8527 307.77C60.8255 306.512 59.8322 305.209 58.8727 303.9C58.7259 303.701 58.5905 303.509 58.4494 303.333C54.5189 297.872 51.2594 291.954 48.7417 285.708C48.6627 285.521 48.5893 285.317 48.5159 285.142C47.737 283.158 47.0315 281.146 46.422 279.095C46.1624 278.239 45.9084 277.395 45.6939 276.505C45.6149 276.25 45.5528 275.989 45.4851 275.734C42.3132 263.181 41.9463 250.136 41.9463 237.152C41.9463 235.641 41.9463 234.13 41.9463 232.618C41.9914 227.318 42.0535 222.023 42.1325 216.734C42.1626 215.373 42.1909 214.008 42.2172 212.636C42.2962 209.164 42.4091 205.684 42.5558 202.197C42.5897 201.234 42.6349 200.265 42.6857 199.307C42.7082 198.752 42.7365 198.196 42.7703 197.641C42.8719 195.635 42.9923 193.642 43.1315 191.662Z" fill="#6B5BD4"/>
<path opacity="0.1" d="M100.407 104.377H68.9868C74.0966 96.3554 79.6771 88.6458 85.6987 81.2894C90.372 75.5316 95.2935 69.9211 100.407 64.5146V104.377Z" fill="#6B5BD4"/>
<path opacity="0.1" d="M100.407 106.791V189.236H43.312C43.312 188.998 43.3459 188.755 43.3685 188.517C43.4192 187.865 43.47 187.219 43.5265 186.567C43.5829 185.808 43.6563 185.048 43.7297 184.3C43.803 183.552 43.8764 182.646 43.9667 181.824C44.057 181.002 44.1304 180.169 44.2207 179.347C44.311 178.526 44.4013 177.704 44.5029 176.888C44.6045 176.072 44.6948 175.244 44.8077 174.428C44.8923 173.754 44.977 173.074 45.0729 172.394C45.2028 171.436 45.3382 170.478 45.4793 169.526C45.4793 169.379 45.5245 169.237 45.547 169.095C46.5786 162.127 47.9803 155.218 49.7462 148.399C51.6006 141.247 53.9679 134.24 56.8294 127.431C59.8701 120.297 63.4317 113.398 67.4853 106.791H100.407Z" fill="#6B5BD4"/>
<path opacity="0.1" d="M114.088 191.663V270.056H236.427V191.663H114.088ZM114.088 272.482V339.807C114.788 339.949 115.476 340.091 116.171 340.21C117.102 340.391 118.039 340.555 118.993 340.697L119.557 340.776C119.929 340.839 120.308 340.89 120.686 340.935C121.628 341.071 122.571 341.173 123.508 341.264C123.948 341.309 124.405 341.343 124.851 341.383L125.94 341.462C126.533 341.507 127.12 341.541 127.707 341.564C128.068 341.564 128.429 341.592 128.796 341.604C129.163 341.615 129.361 341.604 129.654 341.604H130.721C131.206 341.604 131.692 341.604 132.171 341.604H132.792C133.278 341.604 133.763 341.604 134.243 341.558H134.271C134.61 341.558 134.943 341.558 135.281 341.519C135.377 341.524 135.473 341.524 135.569 341.519C135.851 341.519 136.133 341.519 136.404 341.485C136.468 341.479 136.532 341.479 136.596 341.485C137.223 341.445 137.855 341.394 138.493 341.337C139.13 341.281 139.734 341.213 140.372 341.145L141.653 340.986C146.889 340.25 152.066 339.144 157.146 337.676C168.564 334.48 179.722 330.009 191.134 326.739C205.876 322.517 222.176 320.437 236.422 325.577V272.482H114.088ZM236.427 104.377V0.011506C223.035 -0.136447 209.678 1.43474 196.682 4.68689C165.702 12.5019 137.883 29.4523 114.088 51.1007V104.372H120.246V106.792H114.088V189.237H236.427V106.792H145.435V104.366L236.427 104.377ZM393.602 69.1222C385.937 68.8502 378.318 66.419 371.421 62.6503C358.248 55.4588 347.716 44.3398 335.954 34.9664C311.515 15.4318 281.207 3.63847 250.114 0.714231V104.377H424.745L425.18 103.918L393.602 69.1222ZM409.512 66.2886L426.382 84.8825V61.3979C420.704 62.1176 415.76 63.7894 409.512 66.266V66.2886ZM426.382 356.525V272.482H390.407C390.317 272.125 390.215 271.762 390.102 271.399C390.21 271.762 390.306 272.125 390.402 272.482H250.114V333.256C251.446 334.248 252.761 335.296 254.065 336.35C255.472 337.506 256.87 338.676 258.258 339.858L259.658 341.02C260.33 341.587 261.013 342.153 261.69 342.692C263.048 343.791 264.416 344.879 265.793 345.956C266.482 346.5 267.174 347.035 267.87 347.56C278.894 356.019 290.522 363.655 302.66 370.404C305.38 371.928 308.129 373.396 310.894 374.83C312.734 375.782 314.588 376.715 316.454 377.63C319.253 379.001 322.075 380.323 324.92 381.597C351.145 393.417 378.877 401.527 407.322 405.693C413.636 406.626 419.978 407.363 426.348 407.904V356.514H426.913L426.382 356.525ZM250.114 106.792V189.237H426.382V106.792H250.114ZM250.114 191.651V270.056H426.382V191.663L250.114 191.651ZM440.063 61.2846V87.5234L461.589 63.7951C454.455 62.6126 447.28 61.7757 440.063 61.2846ZM440.063 191.663V270.056H611.5V191.663H440.063ZM610.896 362.742L611.5 272.482H440.063V408.816C451.106 409.277 462.165 409.143 473.194 408.414H473.385C478.653 408.073 483.896 407.59 489.115 406.963H489.234C517.084 403.708 544.316 396.404 570.073 385.28L610.896 362.742ZM644.574 204.538C643.923 203.027 643.255 201.516 642.57 200.005C641.295 197.171 639.951 194.417 638.563 191.668H625.187V270.056H659C658.972 247.852 653.373 225.184 644.574 204.538ZM625.187 272.482V350.121C634.708 340.958 642.762 330.468 648.553 318.476C655.523 304.031 658.712 288.401 658.977 272.476L625.187 272.482ZM625.187 168.818V189.22H637.31C633.635 182.207 629.588 175.397 625.187 168.818ZM508.92 76.6708C508.028 76.3251 507.131 75.9794 506.234 75.6508C496.772 72.1395 487.102 69.2209 477.28 66.912L444.33 103.216L443.687 103.913L444.11 104.372H561.381C545.047 93.0863 527.437 83.7876 508.92 76.6708ZM564.824 106.792H442.468L440.063 108.996V189.237H461.144H611.5V150.361C597.904 133.852 582.212 119.204 564.824 106.792Z" fill="#6B5BD4"/>
<path opacity="0.1" d="M100.407 148.383V189.237H43.312C43.312 188.999 43.3459 188.755 43.3685 188.517C43.4192 187.866 43.47 187.22 43.5265 186.568C43.5829 185.809 43.6563 185.049 43.7297 184.301C43.803 183.553 43.8764 182.646 43.9667 181.825C44.057 181.003 44.1304 180.17 44.2207 179.348C44.311 178.526 44.4013 177.705 44.5029 176.888C44.6045 176.072 44.6948 175.245 44.8077 174.429C44.8923 173.755 44.977 173.075 45.0729 172.394C45.2028 171.437 45.3382 170.479 45.4793 169.527C45.4793 169.38 45.5245 169.238 45.547 169.096C46.5786 162.127 47.9803 155.219 49.7462 148.4L100.407 148.383Z" fill="#6B5BD4"/>
<path opacity="0.1" d="M43.1315 191.662H100.407V270.056H47.3194C47.1839 270.866 47.0485 271.671 46.8961 272.481H100.407V335.692C100.317 335.692 100.226 335.624 100.142 335.59C98.6366 334.99 97.1315 334.353 95.6265 333.68C95.3047 333.533 94.9887 333.38 94.6613 333.238C93.1563 332.524 91.6512 331.769 90.1461 330.972C89.6212 330.694 89.0963 330.405 88.5827 330.11C80.2272 325.429 72.633 319.493 66.0631 312.508C65.8656 312.321 65.685 312.117 65.4987 311.941C64.5844 310.944 63.687 309.935 62.8178 308.904C62.4905 308.524 62.1744 308.139 61.8527 307.77C60.8255 306.512 59.8322 305.209 58.8727 303.9C58.7259 303.701 58.5905 303.509 58.4494 303.333C54.5189 297.872 51.2594 291.954 48.7417 285.708C48.6627 285.521 48.5893 285.317 48.5159 285.142C47.737 283.158 47.0315 281.146 46.422 279.095C46.1624 278.239 45.9084 277.395 45.6939 276.505C45.6149 276.25 45.5528 275.989 45.4851 275.734C42.3132 263.181 41.9463 250.136 41.9463 237.152C41.9463 235.641 41.9463 234.13 41.9463 232.618C41.9914 227.318 42.0535 222.023 42.1325 216.734C42.1626 215.373 42.1909 214.008 42.2172 212.636C42.2962 209.164 42.4091 205.684 42.5558 202.197C42.5897 201.234 42.6349 200.265 42.6857 199.307C42.7082 198.752 42.7365 198.196 42.7703 197.641C42.8719 195.635 42.9923 193.642 43.1315 191.662Z" fill="#6B5BD4"/>
<path opacity="0.1" d="M157.152 118.602V189.237H114.082V118.602H120.223V94.6865H145.429V118.602H157.152Z" fill="#6B5BD4"/>
<path opacity="0.1" d="M157.146 191.657H114.082V270.051H157.146V191.657Z" fill="#6B5BD4"/>
<path opacity="0.1" d="M114.088 272.481H157.152V337.654C152.072 339.122 146.895 340.226 141.659 340.957C141.23 341.02 140.807 341.071 140.378 341.116C139.746 341.19 139.119 341.258 138.493 341.314L136.602 341.467H136.41L135.575 341.513H135.287C134.948 341.513 134.615 341.553 134.276 341.558H134.248C133.763 341.558 133.283 341.592 132.798 341.604H132.177C131.697 341.604 131.217 341.604 130.726 341.604H129.665H128.802C128.435 341.604 128.074 341.604 127.707 341.558C127.127 341.535 126.54 341.502 125.946 341.456L124.857 341.377C124.405 341.343 123.954 341.297 123.508 341.252C122.56 341.169 121.619 341.061 120.686 340.929L119.557 340.77L118.993 340.691C118.05 340.549 117.113 340.391 116.171 340.209C115.471 340.085 114.782 339.943 114.088 339.796V272.481Z" fill="#6B5BD4"/>
<path opacity="0.1" d="M426.377 110.26H390.865V189.231H426.377V110.26Z" fill="#6B5BD4"/>
<path opacity="0.1" d="M426.382 191.657V270.056H250.114V236.241H344.002V256.189H390.865V191.657H426.382Z" fill="#6B5BD4"/>
<path opacity="0.1" d="M426.941 356.542C426.755 356.542 426.569 356.542 426.377 356.508V407.938C420.014 407.413 413.674 406.678 407.356 405.733C378.901 401.568 351.158 393.462 324.92 381.648C317.346 378.217 309.926 374.479 302.66 370.433C290.526 363.68 278.9 356.045 267.876 347.588C265.099 345.458 262.364 343.279 259.67 341.054C257.801 339.501 255.95 337.915 254.065 336.379C252.767 335.319 251.452 334.271 250.114 333.273V272.482H390.402C390.3 272.119 390.21 271.762 390.108 271.399C390.215 271.762 390.317 272.119 390.407 272.482H426.382V356.503C426.568 356.508 426.755 356.525 426.941 356.542Z" fill="#6B5BD4"/>
<path opacity="0.1" d="M519 104.377H495.86V97.1572H506.228V75.6504C507.127 75.9829 508.023 76.3229 508.914 76.6705V97.1572H518.995L519 104.377Z" fill="#6B5BD4"/>
<path opacity="0.1" d="M574.758 189.236H461.144C461.155 189.239 461.166 189.239 461.177 189.236H461.127H440.063V110.265H446.035V168.636H473.318V134.067H495.866V106.791H519.006V134.084H541.542V168.653H574.763L574.758 189.236Z" fill="#6B5BD4"/>
<path opacity="0.1" d="M440.063 191.662V270.056H574.763V191.662H440.063ZM611.308 362.328L611.5 300.273H574.763V272.504H440.063V408.815C451.106 409.276 462.165 409.142 473.194 408.413H473.385C478.653 408.073 483.896 407.589 489.115 406.962H489.234C517.084 403.707 544.316 396.403 570.073 385.28" fill="#6B5BD4"/>
<path opacity="0.1" d="M627.557 272.481H658.977C658.707 288.4 655.523 304.036 648.553 318.476C642.762 330.473 634.708 340.963 625.187 350.127V300.256H627.557V272.481Z" fill="#6B5BD4"/>
<path opacity="0.1" d="M659 270.056H627.557V204.538H644.574C653.373 225.183 658.972 247.852 659 270.056Z" fill="#6B5BD4"/>
<path opacity="0.1" d="M426.382 132.214H407.356V156.974H426.382V132.214Z" fill="#6B5BD4"/>
<path opacity="0.1" d="M426.382 183.536H407.356V189.237H426.382V183.536Z" fill="#6B5BD4"/>
<path opacity="0.1" d="M426.382 191.657H407.356V208.29H426.382V191.657Z" fill="#6B5BD4"/>
<path opacity="0.1" d="M426.382 234.857H407.356V259.617H426.382V234.857Z" fill="#6B5BD4"/>
<path opacity="0.1" d="M426.382 286.179H407.356V310.938H426.382V286.179Z" fill="#6B5BD4"/>
<path opacity="0.1" d="M426.382 356.502C426.568 356.502 426.755 356.502 426.947 356.542C426.76 356.542 426.574 356.542 426.382 356.508V362.26H407.356V337.5H426.382V356.502Z" fill="#6B5BD4"/>
<path opacity="0.1" d="M426.382 388.816V407.937C420.016 407.412 413.674 406.677 407.356 405.733V388.816H426.382Z" fill="#6B5BD4"/>
<path opacity="0.1" d="M331.653 268.236H250.114V270.055H331.653V268.236Z" fill="#6B5BD4"/>
<path opacity="0.1" d="M331.653 272.476H250.114V279.446H331.653V272.476Z" fill="#6B5BD4"/>
<path opacity="0.1" d="M331.653 302.296H250.114V313.506H331.653V302.296Z" fill="#6B5BD4"/>
<path opacity="0.1" d="M331.653 336.355V347.565H267.876C265.099 345.442 262.364 343.262 259.669 341.025C257.796 339.478 255.944 337.891 254.065 336.355H331.653Z" fill="#6B5BD4"/>
<path opacity="0.1" d="M331.653 370.409V381.647H324.92C317.346 378.217 309.926 374.478 302.66 370.432L331.653 370.409Z" fill="#6B5BD4"/>
<path opacity="0.1" d="M489.245 199.257H473.194V215.374H489.245V199.257Z" fill="#6B5BD4"/>
<path opacity="0.1" d="M141.699 124.161H125.647V140.278H141.699V124.161Z" fill="#6B5BD4"/>
<path opacity="0.1" d="M141.699 161.599H125.647V177.716H141.699V161.599Z" fill="#6B5BD4"/>
<path opacity="0.1" d="M141.699 199.035H125.647V215.152H141.699V199.035Z" fill="#6B5BD4"/>
<path opacity="0.1" d="M141.699 236.467H125.647V252.584H141.699V236.467Z" fill="#6B5BD4"/>
<path opacity="0.1" d="M141.699 273.904H125.647V290.022H141.699V273.904Z" fill="#6B5BD4"/>
<path opacity="0.1" d="M141.699 311.341H125.647V327.458H141.699V311.341Z" fill="#6B5BD4"/>
<path opacity="0.1" d="M550.522 199.257H534.471V215.374H550.522V199.257Z" fill="#6B5BD4"/>
<path opacity="0.1" d="M489.245 239.012H473.194V255.129H489.245V239.012Z" fill="#6B5BD4"/>
<path opacity="0.1" d="M550.522 239.012H534.471V255.129H550.522V239.012Z" fill="#6B5BD4"/>
<path opacity="0.1" d="M489.245 278.761H473.194V294.878H489.245V278.761Z" fill="#6B5BD4"/>
<path opacity="0.1" d="M550.522 278.761H534.471V294.878H550.522V278.761Z" fill="#6B5BD4"/>
<path opacity="0.1" d="M489.245 318.516H473.194V334.633H489.245V318.516Z" fill="#6B5BD4"/>
<path opacity="0.1" d="M550.522 318.516H534.471V334.633H550.522V318.516Z" fill="#6B5BD4"/>
<path opacity="0.1" d="M489.245 358.271H473.194V374.388H489.245V358.271Z" fill="#6B5BD4"/>
<path opacity="0.1" d="M550.522 358.271H534.471V374.388H550.522V358.271Z" fill="#6B5BD4"/>
<path opacity="0.1" d="M473.194 408.413V398.02H489.24V406.934L473.194 408.413Z" fill="#6B5BD4"/>
<path opacity="0.1" d="M45.4795 169.079V178.3H100.407V169.079H45.4795ZM50.9485 177.721H46.4333V169.663H50.9485V177.721ZM56.4176 177.721H51.9024V169.663H56.4176V177.721ZM61.8753 177.721H57.3601V169.663H61.8753V177.721ZM67.3444 177.721H62.8292V169.663H67.3444V177.721ZM72.8078 177.721H68.2926V169.663H72.8078V177.721ZM78.2768 177.721H73.7616V169.663H78.2768V177.721ZM83.7459 177.721H79.2307V169.663H83.7459V177.721ZM89.2093 177.721H84.6941V169.663H89.2093V177.721ZM94.6727 177.721H90.1575V169.663H94.6727V177.721ZM100.142 177.721H95.6265V169.663H100.142V177.721Z" fill="#6B5BD4"/>
<path opacity="0.1" d="M45.4795 195.919V205.139H100.407V195.919H45.4795ZM50.9485 204.561H46.4333V196.503H50.9485V204.561ZM56.4176 204.561H51.9024V196.503H56.4176V204.561ZM61.8753 204.561H57.3601V196.503H61.8753V204.561ZM67.3444 204.561H62.8292V196.503H67.3444V204.561ZM72.8078 204.561H68.2926V196.503H72.8078V204.561ZM78.2768 204.561H73.7616V196.503H78.2768V204.561ZM83.7459 204.561H79.2307V196.503H83.7459V204.561ZM89.2093 204.561H84.6941V196.503H89.2093V204.561ZM94.6727 204.561H90.1575V196.503H94.6727V204.561ZM100.142 204.561H95.6265V196.503H100.142V204.561Z" fill="#6B5BD4"/>
<path opacity="0.1" d="M45.4795 222.764V231.978H100.407V222.764H45.4795ZM50.9485 231.395H46.4333V223.336H50.9485V231.395ZM56.4176 231.395H51.9024V223.336H56.4176V231.395ZM61.8753 231.395H57.3601V223.336H61.8753V231.395ZM67.3444 231.395H62.8292V223.336H67.3444V231.395ZM72.8078 231.395H68.2926V223.336H72.8078V231.395ZM78.2768 231.395H73.7616V223.336H78.2768V231.395ZM83.7459 231.395H79.2307V223.336H83.7459V231.395ZM89.2093 231.395H84.6941V223.336H89.2093V231.395ZM94.6727 231.395H90.1575V223.336H94.6727V231.395ZM100.142 231.395H95.6265V223.336H100.142V231.395Z" fill="#6B5BD4"/>
<path opacity="0.1" d="M45.4795 249.604V258.818H100.407V249.604H45.4795ZM50.9485 258.24H46.4333V250.17H50.9485V258.24ZM56.4176 258.24H51.9024V250.17H56.4176V258.24ZM61.8753 258.24H57.3601V250.17H61.8753V258.24ZM67.3444 258.24H62.8292V250.17H67.3444V258.24ZM72.8078 258.24H68.2926V250.17H72.8078V258.24ZM78.2768 258.24H73.7616V250.17H78.2768V258.24ZM83.7459 258.24H79.2307V250.17H83.7459V258.24ZM89.2093 258.24H84.6941V250.17H89.2093V258.24ZM94.6727 258.24H90.1575V250.17H94.6727V258.24ZM100.142 258.24H95.6265V250.17H100.142V258.24Z" fill="#6B5BD4"/>
<path opacity="0.1" d="M45.7446 276.432C45.9591 277.304 46.2131 278.166 46.4727 279.022V277.015H50.9879V285.068H48.5666C48.6344 285.261 48.7077 285.459 48.7867 285.635H100.429V276.432H45.7446ZM56.4682 285.068H51.953V277.015H56.4682V285.068ZM61.926 285.068H57.4108V277.015H61.926V285.068ZM67.395 285.068H62.8798V277.015H67.395V285.068ZM72.8584 285.068H68.3432V277.015H72.8584V285.068ZM78.3275 285.068H73.8123V277.015H78.3275V285.068ZM83.7965 285.068H79.2813V277.015H83.7965V285.068ZM89.2599 285.068H84.7447V277.015H89.2599V285.068ZM94.7233 285.068H90.2081V277.015H94.7233V285.068ZM100.192 285.068H95.6772V277.015H100.192V285.068Z" fill="#6B5BD4"/>
<path opacity="0.1" d="M58.4663 303.271C58.6131 303.453 58.7485 303.657 58.8896 303.838H61.8753V307.709L62.8404 308.842V303.816H67.3556V311.942H65.4987C65.6794 312.129 65.8543 312.328 66.0631 312.509H100.396V303.271H58.4663ZM72.836 311.942H68.3207V303.85H72.836V311.942ZM78.305 311.942H73.7898V303.85H78.305V311.942ZM83.774 311.942H79.2588V303.85H83.774V311.942ZM89.2374 311.942H84.7222V303.85H89.2374V311.942ZM94.7008 311.942H90.1856V303.85H94.7008V311.942ZM100.17 311.942H95.6547V303.85H100.17V311.942Z" fill="#6B5BD4"/>
<path opacity="0.1" d="M88.5996 330.11C89.1189 330.405 89.6438 330.677 90.1687 330.966V330.683H94.6839V333.239C95.0112 333.38 95.3216 333.533 95.6433 333.681V330.683H100.159V335.59C100.244 335.629 100.333 335.662 100.424 335.687V330.11H88.5996Z" fill="#6B5BD4"/>
<path opacity="0.1" d="M426.377 356.503H426.941H426.377ZM390.103 271.399C390.21 271.762 390.306 272.125 390.402 272.482C390.317 272.125 390.215 271.762 390.103 271.399ZM120.246 104.378V106.792H145.457V104.366L120.246 104.378ZM426.382 356.503H426.947H426.382ZM390.103 271.399C390.21 271.762 390.306 272.125 390.402 272.482C390.317 272.125 390.215 271.762 390.103 271.399ZM426.377 356.503H426.941H426.377ZM390.103 271.399C390.21 271.762 390.306 272.125 390.402 272.482C390.317 272.125 390.215 271.762 390.103 271.399Z" fill="#6B5BD4"/>
<path opacity="0.1" d="M496.351 489C526.724 489 551.346 485.029 551.346 480.131C551.346 475.233 526.724 471.262 496.351 471.262C465.978 471.262 441.356 475.233 441.356 480.131C441.356 485.029 465.978 489 496.351 489Z" fill="#6B5BD4"/>
<path opacity="0.1" d="M248.319 480.131C278.692 480.131 303.315 476.16 303.315 471.262C303.315 466.363 278.692 462.393 248.319 462.393C217.946 462.393 193.324 466.363 193.324 471.262C193.324 476.16 217.946 480.131 248.319 480.131Z" fill="#6B5BD4"/>
<path d="M311.634 236.744C311.62 236.688 311.591 236.637 311.549 236.597C310.708 235.764 299.985 220.536 299.985 220.536C299.985 220.536 299.42 218.836 298.506 216.626C298.799 216.245 299.019 215.813 299.155 215.351C299.204 215.155 299.24 214.956 299.262 214.756C299.262 214.694 299.307 214.643 299.324 214.58C299.52 213.812 299.501 213.003 299.268 212.245C299.205 212.44 299.128 212.629 299.037 212.812C298.824 212.152 298.54 211.517 298.19 210.919C296.768 208.46 294.736 206.386 293.24 203.988C290.975 200.264 290.075 195.863 290.695 191.543C290.695 191.764 290.695 191.991 290.695 192.212C290.751 191.355 290.864 190.503 291.033 189.662C291.269 188.704 291.584 187.767 291.976 186.862C293.319 183.774 295.492 181.082 296.813 177.982C297.256 176.936 297.593 175.848 297.817 174.735C298.283 172.875 298.452 170.952 298.32 169.039C298.32 169.492 298.246 169.946 298.179 170.394C298.036 165.794 296.186 161.413 292.992 158.113C288.381 153.46 281.76 151.652 275.428 150.7C272.767 150.389 270.225 149.415 268.034 147.867C265.601 146.286 262.458 145.906 259.613 146.252C256.344 146.606 253.306 148.115 251.04 150.508C248.032 153.829 246.728 158.532 243.217 161.332C241.09 163.032 238.392 163.825 235.914 164.981C233.436 166.138 231.094 167.815 230.298 170.297C230.298 170.297 230.298 170.263 230.298 170.246V170.388L230.264 170.479C229.44 173.414 231.032 176.401 231.862 179.331C232.725 182.363 232.782 185.564 232.827 188.698C232.889 192.529 232.945 196.366 232.883 200.203C232.855 201.71 232.804 203.235 232.691 204.736C231.355 205.142 230.058 205.665 228.814 206.301C227.55 207.128 222.82 212.257 222.82 212.257L213.569 247.744L213.694 247.886L213.569 248.368L214.038 248.26C215.347 249.677 219.258 253.712 223.48 256.228L223.875 263.187C223.875 263.187 224.349 270.169 230.744 273.054C230.891 275.474 231.348 285.3 229.231 289.194C227.766 292.038 227.076 295.221 227.233 298.42C227.233 298.42 227.973 304.325 227.132 307.431C226.641 309.506 226.604 311.664 227.025 313.755C227.025 313.755 227.025 314.441 227.025 315.62C227.025 321.904 227.098 342.045 227.025 344.324C226.917 347.015 227.025 386.827 227.025 386.827C227.025 386.827 226.5 406.724 224.818 412.114C223.136 417.503 223.559 435.349 223.559 435.349C223.559 435.349 222.504 456.607 226.234 460.8C226.234 460.987 226.201 461.18 226.195 461.367C226.195 461.452 226.195 461.548 226.195 461.633C226.15 463.248 226.46 464.966 227.843 465.493C230.665 466.581 234.396 469.845 235.101 470.78C235.807 471.715 239.91 474.044 245.26 473.421C248.612 473.043 251.985 472.887 255.358 472.956C255.358 472.956 257.468 472.571 256.785 469.936C256.345 468.292 254.697 465.765 253.523 464.104C253.738 464.161 253.947 464.206 254.144 464.246L254.347 464.285H254.505C254.592 464.291 254.678 464.291 254.765 464.285H254.878C254.983 464.294 255.089 464.294 255.194 464.285C256.611 464.149 261.893 466.62 262.836 468.252C263.778 469.885 267.103 471.126 269.609 471.437C271.099 471.619 274.858 471.313 278.013 470.905C279.601 470.74 281.175 470.452 282.72 470.043C283.465 469.76 283.623 468.853 283.408 467.833C283.155 466.538 282.465 465.369 281.455 464.523C280.541 463.872 279.333 462.155 278.442 460.749L278.204 460.369C279.779 458.862 282.624 453.932 283.487 452.912C284.537 451.67 281.794 406.282 281.794 406.282V383.529L285.999 361.994L288.939 350.597L291.462 333.392C291.462 333.392 295.876 313.296 294.516 311.324C294.516 311.284 293.387 290.593 292.202 285.623C291.688 283.408 291.818 278.42 292.123 273.569C292.441 273.252 292.663 272.85 292.763 272.41C292.863 271.971 292.837 271.512 292.687 271.087C292.603 270.797 292.493 270.514 292.36 270.243C292.36 270.158 292.36 270.067 292.36 269.982C294.798 268.856 297.346 267.986 299.962 267.387C304.167 266.559 303.117 264.383 303.117 264.383C303.117 264.383 304.065 262.518 304.692 261.379C305.318 260.24 304.799 250.187 304.692 249.359C304.652 249.025 304.393 247.178 304.094 245.081C305.442 244.117 307.198 242.922 309.111 241.788C312.751 239.623 311.933 237.339 311.634 236.744ZM256.774 380.423C256.774 380.423 253.619 388.505 254.883 390.573C256.148 392.642 254.675 400.321 254.675 400.321L253.619 411.717C253.619 411.717 250.679 432.856 251.728 437.826C252.552 441.725 252.857 453.371 252.953 458.227C252.881 458.256 252.811 458.29 252.744 458.329L252.603 458.403C253.089 456.493 252.885 452.628 250.475 444.853L250.272 412.737C250.272 412.737 249.9 375.64 252.818 371.492C255.736 367.343 256.769 360.299 256.769 360.299C256.769 360.299 256.136 370.46 255.724 373.152C255.312 375.844 256.774 380.423 256.774 380.423ZM250.899 460.25C250.871 460.319 250.837 460.387 250.814 460.449L250.656 460.245C250.737 460.253 250.818 460.255 250.899 460.25Z" fill="url(#paint0_linear_1916_1781)"/>
<path d="M283.075 472.979C281.444 473.608 272.6 474.68 270.128 474.379C267.656 474.079 264.382 472.821 263.451 471.177C262.52 469.534 257.299 467.052 255.899 467.21C255.326 467.228 254.753 467.147 254.206 466.972C253.241 466.679 252.297 466.315 251.384 465.884C251.257 465.17 251.278 464.437 251.446 463.731C251.479 463.588 251.52 463.448 251.57 463.311C251.9 462.382 252.581 461.62 253.467 461.192L253.67 461.095C254.061 460.926 254.47 460.8 254.889 460.721C259.325 459.866 277.629 461.583 277.629 461.583C277.629 461.583 278.142 462.507 278.848 463.651C279.728 465.068 280.925 466.797 281.828 467.448C282.828 468.307 283.507 469.482 283.753 470.781C283.967 471.784 283.809 472.702 283.075 472.979Z" fill="white"/>
<path opacity="0.1" d="M283.075 472.979C281.444 473.608 272.606 474.679 270.133 474.378C267.661 474.078 264.388 472.814 263.451 471.176C262.514 469.539 257.305 467.051 255.905 467.209C254.505 467.368 251.39 465.883 251.39 465.883C251.39 465.883 250.904 463.616 252.315 462.069L255.137 464.081C255.137 464.081 262.689 466.433 264.089 468.615C265.488 470.797 268.04 472.015 271.725 472.236C274.479 472.418 280.806 471.341 283.769 470.802C283.967 471.783 283.815 472.701 283.075 472.979Z" fill="black"/>
<path d="M256.057 475.869C252.728 475.804 249.398 475.961 246.09 476.339C240.79 476.963 236.744 474.639 236.038 473.681C235.333 472.724 231.681 469.488 228.876 468.354C227.504 467.821 227.183 466.087 227.245 464.467C227.245 464.382 227.245 464.285 227.245 464.2C227.297 463.173 227.448 462.154 227.696 461.157L249.657 460.687L251.559 463.276L251.853 463.673L253.01 465.254C253.01 465.254 253.535 465.946 254.223 466.954C255.386 468.655 257.011 471.165 257.446 472.826C258.14 475.483 256.057 475.869 256.057 475.869Z" fill="white"/>
<path opacity="0.1" d="M256.057 475.869C252.728 475.804 249.399 475.961 246.09 476.34C240.796 476.963 236.744 474.64 236.044 473.682C235.344 472.724 231.681 469.46 228.876 468.366C227.504 467.833 227.183 466.099 227.245 464.479C228.814 464.847 232.11 465.788 233.402 467.425C235.096 469.613 238.126 473.291 242.433 473.523C245.91 473.71 254.376 473.087 257.48 472.838C258.146 475.484 256.057 475.869 256.057 475.869Z" fill="black"/>
<path opacity="0.1" d="M253.444 461.169C253.19 463.062 252.406 463.572 251.841 463.685C251.703 463.712 251.562 463.712 251.424 463.685C251.35 463.68 251.276 463.668 251.204 463.651C251.204 463.651 231.483 468.026 227.499 464.484C227.398 464.393 227.303 464.294 227.217 464.189C227.269 463.163 227.42 462.144 227.668 461.146L249.629 460.676L251.531 463.266C251.86 462.336 252.542 461.574 253.427 461.146L253.444 461.169Z" fill="black"/>
<path opacity="0.1" d="M278.842 463.628C278.402 464.115 278.035 464.393 277.804 464.297C276.765 463.877 268.254 462.421 265.551 463.673C262.847 464.926 253.698 463.877 253.698 463.877C253.698 463.877 253.698 462.789 253.647 461.044C254.039 460.874 254.448 460.749 254.867 460.67C259.303 459.814 277.606 461.531 277.606 461.531C277.606 461.531 278.142 462.483 278.842 463.628Z" fill="black"/>
<path d="M291.722 335.438L289.227 352.745L286.326 364.216L282.172 385.898V408.85C282.172 408.85 284.87 454.516 283.832 455.763C282.793 457.009 278.848 464.11 277.809 463.697C276.771 463.283 268.26 461.821 265.556 463.067C262.853 464.314 253.704 463.277 253.704 463.277C253.704 463.277 253.495 445.556 252.457 440.552C251.418 435.548 254.325 414.279 254.325 414.279L255.363 402.814C255.363 402.814 256.819 395.096 255.572 393.01C254.325 390.925 257.44 382.809 257.44 382.809C257.44 382.809 255.99 378.213 256.407 375.505C256.825 372.796 257.44 362.578 257.44 362.578C257.44 362.578 256.407 369.673 253.523 373.838C250.639 378.004 251.006 415.333 251.006 415.333L251.209 447.636C256.407 464.739 251.209 463.067 251.209 463.067C251.209 463.067 231.489 467.448 227.504 463.901C223.52 460.353 224.66 438.024 224.66 438.024C224.66 438.024 224.248 420.094 225.907 414.676C227.566 409.258 228.091 389.236 228.091 389.236C228.091 389.236 227.984 349.198 228.091 346.494C228.17 344.228 228.091 323.934 228.091 317.592C228.091 316.413 228.091 315.716 228.091 315.716L230.473 309.777L258.693 306.229H272.194C272.194 306.229 292.512 311.024 294.612 313.092C294.656 313.127 294.695 313.169 294.725 313.217C296.085 315.218 291.722 335.438 291.722 335.438Z" fill="#6B5BD4"/>
<path opacity="0.1" d="M257.457 426.35C257.457 426.35 263.665 441.362 266.595 442.405C269.524 443.447 257.457 426.35 257.457 426.35Z" fill="black"/>
<path opacity="0.1" d="M259.754 448.452C259.754 448.452 280.716 449.495 280.507 451.79C280.298 454.085 259.754 448.452 259.754 448.452Z" fill="black"/>
<path opacity="0.1" d="M231.709 442.45C232.539 443.238 247.698 444.717 246.451 446.157C245.204 447.596 232.956 450.396 232.956 450.396L231.709 442.45Z" fill="black"/>
<path opacity="0.1" d="M229.22 416.552C229.22 417.175 232.336 436.568 233.171 437.401C234.006 438.234 240.853 439.067 240.853 439.067L229.22 416.552Z" fill="black"/>
<path d="M251.824 151.477C248.85 154.815 247.563 159.547 244.098 162.369C241.992 164.07 239.328 164.88 236.879 166.036C234.429 167.192 232.002 168.955 231.274 171.573C230.462 174.52 232.031 177.529 232.855 180.476C233.707 183.525 233.758 186.71 233.809 189.9C233.865 193.76 233.927 197.619 233.859 201.478C233.758 207.491 233.261 213.782 230.083 218.876C241.558 222.543 253.76 223.042 265.793 223.512C268.106 223.678 270.429 223.619 272.73 223.336C274.724 222.938 276.696 222.436 278.639 221.835C282.48 220.814 286.439 220.305 290.412 220.322C292.145 220.322 293.912 220.429 295.582 219.976C297.253 219.522 298.861 218.361 299.313 216.683C299.714 215.176 299.127 213.572 298.359 212.218C296.959 209.747 294.973 207.684 293.471 205.247C291.939 202.673 291.03 199.774 290.817 196.782C290.604 193.791 291.094 190.791 292.247 188.025C293.579 184.913 295.723 182.204 297.033 179.087C298.374 175.741 298.731 172.078 298.06 168.534C297.39 164.99 295.721 161.714 293.251 159.094C288.697 154.413 282.161 152.599 275.907 151.636C273.274 151.324 270.762 150.349 268.604 148.802C266.205 147.216 263.095 146.83 260.285 147.182C257.042 147.546 254.039 149.071 251.824 151.477Z" fill="#3F3D56"/>
<g opacity="0.1">
<path opacity="0.1" d="M292.422 184.754C291.271 187.485 290.778 190.449 290.982 193.408C291.109 191.292 291.596 189.214 292.422 187.264C293.748 184.153 295.893 181.444 297.202 178.327C298.273 175.725 298.723 172.907 298.517 170.099C298.401 172.067 297.956 174.002 297.202 175.822C295.893 178.939 293.748 181.643 292.422 184.754Z" fill="black"/>
<path opacity="0.1" d="M233.978 189.129C234.012 191.351 234.046 193.578 234.051 195.799C234.051 192.739 234.023 189.684 233.978 186.63C233.933 183.462 233.876 180.254 233.024 177.2C232.46 175.261 231.624 173.295 231.331 171.34C230.829 174.117 232.257 176.933 233.024 179.705C233.876 182.731 233.933 185.961 233.978 189.129Z" fill="black"/>
<path opacity="0.1" d="M295.774 216.734C294.081 217.193 292.343 217.091 290.61 217.079C286.639 217.054 282.683 217.553 278.842 218.564C276.899 219.163 274.927 219.662 272.933 220.06C270.63 220.347 268.305 220.408 265.991 220.241C254.364 219.782 242.574 219.289 231.438 215.951C231.108 216.693 230.73 217.412 230.309 218.105C241.784 221.766 253.986 222.27 266.013 222.741C268.328 222.907 270.653 222.846 272.955 222.559C274.942 222.165 276.907 221.668 278.842 221.069C282.675 220.054 286.624 219.549 290.587 219.567C292.32 219.567 294.081 219.675 295.752 219.216C297.422 218.757 299.031 217.606 299.482 215.929C299.673 215.152 299.653 214.338 299.426 213.571C298.923 215.158 297.371 216.263 295.774 216.734Z" fill="black"/>
</g>
<path d="M279.057 210.018C278.639 210.959 276.878 219.086 276.46 219.919C276.043 220.752 273.762 234.087 273.554 234.835C273.345 235.583 258.524 231.706 258.524 231.706L249.6 224.197L240.429 215.034C240.429 215.034 240.158 206.765 246.914 204.113C247.373 203.932 247.845 203.784 248.325 203.671C256.52 201.693 255.696 176.673 255.696 176.673L272.515 183.966C272.515 183.966 269.4 198.565 269.507 201.382C269.535 202.328 270.274 202.917 271.24 203.274C272.732 203.701 274.285 203.869 275.834 203.773C275.834 203.773 279.474 209.083 279.057 210.018Z" fill="#FBBEBE"/>
<path d="M309.167 237.436L311.555 238.065C311.555 238.065 313.321 240.763 309.167 243.273C306.53 244.882 303.998 246.66 301.588 248.595L289.312 252.346L286.947 244.894L298.37 236.189L309.167 237.436Z" fill="#6B5BD4"/>
<path opacity="0.1" d="M309.167 237.436L311.555 238.065C311.555 238.065 313.321 240.763 309.167 243.273C306.53 244.882 303.998 246.66 301.588 248.595L289.312 252.346L286.947 244.894L298.37 236.189L309.167 237.436Z" fill="black"/>
<path d="M219.58 244.633L214.805 249.325C214.805 249.325 223.418 259.333 230.044 259.957C236.67 260.58 240.943 252.346 240.943 252.346L235.208 243.278L219.58 244.633Z" fill="#6B5BD4"/>
<path opacity="0.1" d="M219.58 244.633L214.805 249.325C214.805 249.325 223.418 259.333 230.044 259.957C236.67 260.58 240.943 252.346 240.943 252.346L235.208 243.278L219.58 244.633Z" fill="black"/>
<path opacity="0.1" d="M264.936 193.023C274.109 193.023 281.546 185.556 281.546 176.344C281.546 167.133 274.109 159.666 264.936 159.666C255.762 159.666 248.325 167.133 248.325 176.344C248.325 185.556 255.762 193.023 264.936 193.023Z" fill="black"/>
<path d="M264.936 191.77C274.109 191.77 281.546 184.303 281.546 175.091C281.546 165.88 274.109 158.413 264.936 158.413C255.762 158.413 248.325 165.88 248.325 175.091C248.325 184.303 255.762 191.77 264.936 191.77Z" fill="#FBBEBE"/>
<path opacity="0.1" d="M294.736 315.11C290.954 315.544 287.228 316.382 283.623 317.609C277.414 319.683 228.763 317.643 228.086 317.609C228.086 316.43 228.086 315.733 228.086 315.733L230.467 309.794L258.687 306.246H272.188C272.188 306.246 292.506 311.04 294.606 313.109C294.691 314.356 294.736 315.11 294.736 315.11Z" fill="black"/>
<path opacity="0.1" d="M279.057 210.018C278.639 210.959 276.878 219.086 276.46 219.919C276.043 220.752 273.762 234.087 273.554 234.835C273.345 235.583 258.524 231.706 258.524 231.706L249.6 224.197L240.429 215.034C240.429 215.034 240.158 206.765 246.914 204.113L263.688 223.478L271.24 203.274C272.732 203.701 274.285 203.869 275.834 203.773C275.834 203.773 279.474 209.083 279.057 210.018Z" fill="black"/>
<path d="M263.688 224.101L246.519 204.266C245.514 203.622 244.365 203.239 243.176 203.151C241.987 203.062 240.795 203.272 239.707 203.762C235.863 205.433 231.088 206.788 229.841 207.621C228.594 208.454 223.92 213.611 223.92 213.611L237.839 250.17L231.709 274.249C231.709 274.249 232.646 286.553 230.259 291.036C228.805 293.902 228.124 297.1 228.283 300.313C228.283 300.313 229.011 306.257 228.182 309.38C227.697 311.468 227.66 313.635 228.074 315.739C228.074 315.739 277.397 317.824 283.623 315.739C287.227 314.508 290.953 313.67 294.736 313.239C294.736 313.239 293.607 292.384 292.478 287.38C291.349 282.376 293.415 263.301 293.415 263.301L292.066 242.865L300.16 221.896C300.16 221.896 295.774 208.454 291.203 207.1C291.203 207.1 282.9 205.116 281.134 204.181C279.367 203.246 274.175 202.407 274.175 202.407L271.449 203.325L263.688 224.101Z" fill="#6B5BD4"/>
<path opacity="0.1" d="M287.642 242.175L251.514 239.709C250.6 239.646 249.808 240.34 249.746 241.258L245.867 298.534C245.805 299.452 246.496 300.247 247.41 300.309L283.539 302.776C284.453 302.838 285.245 302.145 285.307 301.227L289.185 243.951C289.248 243.033 288.557 242.238 287.642 242.175Z" fill="black"/>
<path d="M288.887 240.931L252.758 238.465C251.844 238.402 251.052 239.096 250.99 240.014L247.111 297.29C247.049 298.208 247.74 299.003 248.654 299.065L284.783 301.532C285.697 301.594 286.489 300.901 286.551 299.982L290.43 242.707C290.492 241.789 289.801 240.994 288.887 240.931Z" fill="#3F3D56"/>
<path d="M287.694 245.42L253.334 243.074L249.803 295.216L284.163 297.562L287.694 245.42Z" fill="white"/>
<path opacity="0.1" d="M284.613 258.73L256.546 256.757L255.998 264.612L284.066 266.584L284.613 258.73Z" fill="black"/>
<path opacity="0.1" d="M283.598 289.944L279.144 289.64L278.866 293.733L283.321 294.037L283.598 289.944Z" fill="black"/>
<path opacity="0.1" d="M279.204 280.065L256.404 278.508L256.127 282.601L278.927 284.158L279.204 280.065Z" fill="black"/>
<path d="M283.441 243.471L259.701 241.851L259.275 248.144L283.015 249.764L283.441 243.471Z" fill="#3F3D56"/>
<path opacity="0.1" d="M283.441 243.471L259.701 241.851L259.275 248.144L283.015 249.764L283.441 243.471Z" fill="black"/>
<path opacity="0.1" d="M265.765 313.959C265.765 313.959 265.556 344.822 257.457 362.543C257.457 362.543 267.221 339.189 267.221 338.254C267.221 337.319 272.617 327.515 271.172 324.596C269.727 321.678 265.765 313.959 265.765 313.959Z" fill="black"/>
<path opacity="0.1" d="M266.205 170.921C265.895 168.189 266.561 165.436 268.085 163.151C267.904 165.441 268.549 167.72 269.902 169.572C271.255 171.424 273.226 172.725 275.456 173.239C275.266 173.073 275.13 172.853 275.066 172.609C275.003 172.364 275.015 172.105 275.1 171.868C276.257 173.182 277.143 174.741 278.453 175.897C279.762 177.053 281.726 177.744 283.267 176.923C285.361 175.789 285.384 172.803 284.842 170.479C283.679 165.531 281.294 160.956 277.905 157.178C277.06 156.036 275.963 155.106 274.7 154.461C273.436 153.816 272.042 153.474 270.625 153.461C267.419 153.211 264.089 153.495 261.216 154.94C259.599 155.826 258.085 156.888 256.701 158.108L248.799 164.58C248.039 165.13 247.388 165.818 246.88 166.608C246.541 167.269 246.338 167.992 246.282 168.734C246.08 170.853 246.471 172.987 247.41 174.896C248.349 176.805 249.8 178.414 251.599 179.541C251.561 177.866 252.019 176.217 252.917 174.804C253.814 173.391 255.11 172.278 256.639 171.607C256.878 171.808 257.072 172.058 257.207 172.341C257.343 172.623 257.416 172.931 257.423 173.245L259.088 170.264C259.336 169.721 259.726 169.257 260.217 168.921C261.244 168.354 262.525 169.023 263.4 169.822C264.275 170.621 265.127 171.618 266.301 171.743L266.346 167.305" fill="black"/>
<path d="M266.205 170.298C265.894 167.564 266.56 164.809 268.085 162.522C267.577 167.056 270.98 171.737 275.461 172.61C275.271 172.446 275.135 172.227 275.071 171.983C275.008 171.739 275.02 171.481 275.106 171.244C276.263 172.559 277.149 174.112 278.458 175.273C279.768 176.435 281.732 177.121 283.273 176.294C285.367 175.16 285.389 172.174 284.847 169.856C283.685 164.907 281.299 160.333 277.911 156.555C276.86 155.268 275.535 154.234 274.034 153.529C272.947 153.125 271.805 152.892 270.647 152.837C267.441 152.588 264.111 152.866 261.239 154.311C259.623 155.2 258.109 156.265 256.723 157.484L248.822 163.956C248.06 164.505 247.409 165.193 246.903 165.985C246.563 166.646 246.359 167.369 246.305 168.11C246.103 170.229 246.494 172.362 247.433 174.27C248.372 176.178 249.823 177.786 251.621 178.912C251.585 177.237 252.044 175.589 252.941 174.176C253.839 172.764 255.133 171.651 256.661 170.978C256.9 171.18 257.093 171.43 257.228 171.712C257.364 171.995 257.438 172.302 257.446 172.616L259.105 169.646C259.351 169.103 259.742 168.638 260.234 168.303C261.261 167.736 262.542 168.405 263.417 169.204C264.292 170.003 265.144 170.995 266.318 171.125L266.363 166.682" fill="#3F3D56"/>
<path d="M274.073 275.496C272.622 274.76 248.635 278.517 248.635 278.517C248.635 278.517 244.685 277.384 235.135 275.808C225.585 274.233 224.976 264.859 224.976 264.859L223.932 246.095L227.154 243.262L240.96 252.329C240.96 252.329 241.174 256.914 240.96 257.741C240.824 258.308 240.463 258.982 240.497 259.441C240.507 259.566 240.558 259.683 240.642 259.775C240.726 259.868 240.837 259.929 240.96 259.951C241.897 260.189 254.663 262.264 254.663 262.264C254.663 262.264 284.255 260.229 291.631 270.237C292.216 270.972 292.658 271.81 292.935 272.708C294.764 279.548 275.388 276.148 274.073 275.496Z" fill="#FBBEBE"/>
<path opacity="0.1" d="M292.952 272.748C291.823 273.253 291.124 273.615 291.124 273.615C291.124 273.615 280.535 273.304 274.587 271.139C268.638 268.974 261.408 269.359 261.408 269.359C261.408 269.359 236.619 265.075 240.463 259.481C240.473 259.606 240.524 259.723 240.608 259.815C240.692 259.908 240.803 259.969 240.926 259.991C241.863 260.23 254.629 262.304 254.629 262.304C254.629 262.304 284.221 260.269 291.598 270.277C292.2 271.008 292.66 271.846 292.952 272.748Z" fill="black"/>
<path d="M303.247 239.731C303.247 239.731 304.703 250.051 304.805 250.89C304.906 251.729 305.431 261.833 304.805 262.984C304.178 264.134 303.247 266.004 303.247 266.004C303.247 266.004 304.285 268.192 300.131 269.031C295.977 269.869 291.101 272.363 291.101 272.363C291.101 272.363 280.507 272.051 274.592 269.864C268.677 267.676 261.408 268.09 261.408 268.09C261.408 268.09 229.943 262.666 243.443 256.047C256.944 249.428 266.493 258.393 266.493 258.393L281.546 257.458C281.546 257.458 287.156 254.013 288.714 254.33C289.814 254.471 290.931 254.29 291.931 253.809L292.038 242.86L303.247 239.731Z" fill="#FBBEBE"/>
<path opacity="0.1" d="M226.917 214.399L223.903 214.24L214.771 249.943C214.771 249.943 224.632 247.438 228.881 249.943C233.131 252.448 240.926 252.964 240.926 252.964L238.019 224.503L226.917 214.399Z" fill="black"/>
<path d="M226.917 213.77L223.903 213.611L214.771 249.314C214.771 249.314 224.632 246.809 228.881 249.314C233.131 251.819 240.926 252.335 240.926 252.335L238.019 223.875L226.917 213.77Z" fill="#6B5BD4"/>
<path opacity="0.1" d="M295.983 221.591L300.131 222.532C300.131 222.532 310.725 237.833 311.555 238.689C312.385 239.544 307.604 242.656 305.634 242.656C303.664 242.656 294.008 243.789 291.203 246.407C288.397 249.025 289.566 235.849 289.566 235.549C289.566 235.249 293.048 226.935 293.048 226.935L295.983 221.591Z" fill="black"/>
<path d="M295.983 220.967L300.131 221.902C300.131 221.902 310.725 237.231 311.555 238.065C312.385 238.898 307.604 242.032 305.634 242.032C303.664 242.032 294.008 243.165 291.203 245.783C288.397 248.401 289.566 235.225 289.566 234.925C289.566 234.625 293.071 226.283 293.071 226.283L295.983 220.967Z" fill="#6B5BD4"/>
<g opacity="0.1">
<path opacity="0.1" d="M268.057 162.573C268.032 162.138 268.042 161.703 268.085 161.27C267.225 162.564 266.634 164.019 266.346 165.548V166.863C266.346 166.863 266.346 166.835 266.346 166.818V167.129C266.346 168.047 266.346 168.971 266.318 169.889H266.239V170.314C266.239 170.167 266.239 170.025 266.211 169.878C265.082 169.697 264.275 168.744 263.434 167.985C262.593 167.226 261.278 166.5 260.251 167.084C259.759 167.419 259.368 167.884 259.122 168.427L257.446 171.397C257.438 171.084 257.365 170.777 257.229 170.495C257.094 170.214 256.9 169.965 256.661 169.765C255.132 170.436 253.837 171.549 252.939 172.962C252.042 174.375 251.583 176.023 251.621 177.699C250.079 176.728 248.789 175.404 247.858 173.834C246.926 172.264 246.38 170.494 246.265 168.671C246.167 170.707 246.612 172.733 247.553 174.539C248.495 176.345 249.899 177.866 251.621 178.945C251.585 177.27 252.044 175.622 252.941 174.21C253.839 172.797 255.133 171.684 256.661 171.011C256.9 171.213 257.093 171.463 257.228 171.746C257.364 172.028 257.438 172.336 257.446 172.649L259.105 169.68C259.351 169.136 259.742 168.671 260.234 168.336C261.261 167.77 262.542 168.438 263.417 169.238C264.292 170.037 265.144 171.028 266.318 171.159C266.318 169.708 266.333 168.261 266.363 166.818C266.64 165.304 267.216 163.86 268.057 162.573Z" fill="black"/>
<path opacity="0.1" d="M266.149 168.28C266.177 167.894 266.222 167.509 266.279 167.146L266.341 165.582C266.171 166.47 266.107 167.376 266.149 168.28Z" fill="black"/>
<path opacity="0.1" d="M283.273 175.041C281.732 175.868 279.768 175.177 278.458 174.021C277.149 172.864 276.263 171.306 275.106 169.991C275.02 170.229 275.008 170.487 275.072 170.732C275.135 170.977 275.271 171.197 275.462 171.363C275.349 171.363 275.241 171.306 275.134 171.278C276.263 172.581 277.16 174.111 278.458 175.245C279.757 176.378 281.732 177.092 283.273 176.265C284.814 175.437 285.254 173.499 285.118 171.612C285.017 173.097 284.486 174.383 283.273 175.041Z" fill="black"/>
<path opacity="0.1" d="M275.1 171.266C273.213 170.75 271.528 169.666 270.271 168.161C269.014 166.656 268.245 164.801 268.068 162.845C267.746 167.293 271.087 171.753 275.461 172.609C275.275 172.447 275.141 172.232 275.077 171.993C275.013 171.754 275.021 171.501 275.1 171.266Z" fill="black"/>
</g>
<path d="M546.148 263.89C546.148 263.89 543.924 263.579 543.924 260.331C543.924 257.084 542.333 251.003 542.333 251.003C542.333 251.003 540.956 240.423 539.054 238.745C537.152 237.068 534.708 227.218 534.708 227.218C534.708 227.218 534.29 221.874 533.438 220.724C532.586 219.573 531.434 216.757 529.735 212.739C528.036 208.721 520.97 205.967 520.97 205.967C520.97 205.967 508.164 198.509 504.535 196.077C504.203 195.876 503.893 195.641 503.609 195.375C502.977 194.547 500.223 194.53 500.223 194.53C499.935 192.7 499.658 190.603 499.568 188.705C499.568 188.501 499.568 188.297 499.568 188.093C503.615 185.691 506.663 181.904 508.153 177.427C508.22 177.212 508.277 176.991 508.339 176.77C508.587 176.693 508.815 176.564 509.01 176.392C509.204 176.22 509.36 176.009 509.468 175.772C509.789 175.041 509.801 174.191 510.207 173.505C510.681 172.701 511.584 172.27 512.295 171.669C514.09 170.133 514.553 167.555 514.468 165.214C514.412 163.31 514.107 161.395 514.226 159.507C514.226 159.349 514.226 159.19 514.259 159.031C514.293 158.754 514.333 158.465 514.384 158.193C514.66 156.787 515.264 155.461 515.603 154.067C515.941 152.673 515.975 151.103 515.185 149.902C514.028 148.139 511.618 147.788 509.502 147.635C507.103 147.431 504.986 147.692 503.423 145.691C502.706 144.646 501.897 143.668 501.007 142.767C500.691 142.472 497.621 140.585 497.621 140.466C494.617 139.063 491.209 138.8 488.026 139.724C486.429 140.188 484.933 140.948 483.313 141.327C479.837 142.155 475.829 141.259 472.872 143.26C471.224 144.393 470.236 146.201 469.311 147.952C468.558 149.395 467.794 150.841 467.019 152.288C465.766 154.662 464.502 157.076 463.977 159.706C463.867 160.28 463.797 160.862 463.768 161.446C463.768 161.655 463.768 161.865 463.768 162.075C463.768 162.165 463.768 162.256 463.768 162.347C463.768 162.539 463.768 162.732 463.802 162.913C463.836 163.095 463.802 163.146 463.842 163.265C463.881 163.384 463.892 163.65 463.926 163.832C463.96 164.013 464.028 164.336 464.095 164.58C464.095 164.687 464.163 164.789 464.197 164.897C464.231 165.005 464.321 165.277 464.395 165.464C464.468 165.651 464.474 165.662 464.519 165.758C464.603 165.957 464.705 166.149 464.807 166.325C464.852 166.399 464.886 166.472 464.931 166.546C465.086 166.811 465.259 167.065 465.45 167.305C466.652 168.819 468.436 169.782 469.751 171.199C469.751 171.255 469.751 171.312 469.751 171.369C469.751 171.522 469.751 171.675 469.751 171.833C469.831 174.994 470.68 178.086 472.222 180.842C473.764 183.597 475.954 185.933 478.601 187.645C478.601 187.86 478.629 188.081 478.64 188.302C478.75 189.982 478.729 191.669 478.578 193.346C478.348 193.075 478.06 192.859 477.736 192.714C477.411 192.569 477.059 192.498 476.704 192.507C476.462 192.495 476.219 192.516 475.982 192.57L475.931 192.53V192.581C474.689 192.887 473.16 194.185 471.698 197.874C471.698 197.874 467.251 202.906 463.864 202.697C460.478 202.487 451.904 207.939 451.904 207.939C451.904 207.939 443.54 213.385 441.745 218.939C440.742 222.089 439.537 225.171 438.139 228.165L427.771 249.541L425.869 266.543C425.869 266.543 426.924 274.086 426.715 275.242C426.506 276.398 431.055 286.769 431.055 286.769C431.055 286.769 446.085 313.28 452.226 314.64L452.666 314.334C452.93 314.467 453.209 314.57 453.496 314.64L454.76 313.75C454.839 314.746 454.805 315.748 454.659 316.736C453.818 319.36 454.98 336.441 456.459 339.79C457.938 343.14 457.413 387.06 457.413 387.06L457.204 390.931C457.204 390.931 457.204 391.055 457.255 391.271L457.204 392.189L457.357 392.268C457.515 393.499 457.463 394.749 457.204 395.963C456.674 397.663 456.459 402.463 456.459 402.463C456.459 402.463 452.226 429.597 454.235 435.049C456.245 440.501 457.944 446.474 457.944 446.474C457.944 446.474 460.06 453.275 458.045 454.408C456.03 455.542 450.324 457.553 451.487 460.381C452.559 463 456.628 470.015 457.232 471.041L457.182 471.608L456.352 480.636C456.486 481.828 456.808 482.991 457.306 484.081C458.214 486.053 459.975 488.088 463.339 487.867C463.904 487.827 464.553 487.765 465.19 487.68C471.337 486.847 478.9 484.093 478.9 484.093C478.508 483.843 478.149 483.544 477.833 483.203C477.531 482.909 477.292 482.556 477.129 482.167C476.967 481.777 476.886 481.358 476.89 480.936C476.981 479.287 473.916 471.461 473.149 469.528L472.974 469.097C472.974 469.097 479.961 461.758 478.798 455.264C478.798 455.264 471.066 450.73 473.611 448.237C476.157 445.743 480.706 438.603 480.706 438.603C480.706 438.603 480.915 411.882 480.706 407.898C480.488 405.127 480.619 402.339 481.095 399.601C481.18 399.193 481.282 398.791 481.389 398.389C484.912 398.922 488.47 399.193 492.033 399.199C493.335 399.199 494.652 399.172 495.984 399.12C495.984 399.497 496.001 399.905 496.035 400.344C496.328 406.963 496.876 418.575 497.322 422.888C497.954 429.065 501.448 445.732 501.448 445.732C501.448 445.732 494.782 450.022 502.61 460.614C502.61 460.614 502.61 464.445 502.091 465.006C501.536 466.823 501.09 468.672 500.753 470.542C500.426 472.532 500.291 474.555 500.821 475.598C502.091 478.102 509.71 477.898 509.71 477.898C509.772 477.884 509.834 477.875 509.897 477.87C511.335 477.717 512.789 477.854 514.174 478.273C515.559 478.691 516.846 479.383 517.962 480.307C520.857 482.642 531.841 481.622 537.795 480.874C540.126 480.573 541.684 480.307 541.684 480.307C541.759 480.042 541.785 479.765 541.763 479.491C541.701 478.023 540.555 474.804 532.789 471.931C532.789 471.931 525.485 467.001 525.587 462.705H525.423H524.582C525.113 462.688 525.485 462.688 525.485 462.688C525.485 462.688 522.624 452.209 523.792 451.354C524.96 450.498 521.461 438.886 521.461 438.886C521.461 438.886 519.458 419.391 519.345 418.031C519.352 416.859 519.531 415.694 519.875 414.574L519.345 403.88C519.345 403.88 519.243 400.327 519.345 399.171C519.333 398.167 519.254 397.165 519.108 396.173C519.057 395.776 519.006 395.362 518.95 394.954C521.687 394.257 523.465 393.617 523.465 393.617L523.149 356.412C525.474 351.878 525.903 341.927 525.892 334.877C525.892 330.343 525.689 326.988 525.689 326.988L528.866 321.78C528.866 321.78 529.6 315.546 528.437 314.181C527.924 313.563 528.155 312.922 528.578 312.395C528.801 312.212 529.037 312.045 529.284 311.897C529.256 311.857 529.231 311.816 529.21 311.772C529.432 311.586 529.668 311.417 529.916 311.268C529.916 311.268 528.787 309.511 529.797 308.768C530.746 309.415 531.592 309.93 532.236 310.299C532.19 310.712 532.145 310.95 532.145 310.95L532.416 310.384C533.037 310.735 533.415 310.95 533.415 310.95C533.415 310.95 538.393 300.993 538.286 299.531C538.179 298.069 541.672 291.88 541.672 291.88C541.672 291.88 542.096 288.627 544.003 287.267C545.911 285.907 545.482 276.052 545.482 276.052C545.482 276.052 546.013 270.918 547.283 268.827C548.552 266.735 546.148 263.89 546.148 263.89ZM450.9 259.521L450.996 261.896C450.431 260.983 450.025 260.331 450.025 260.331L450.9 259.521Z" fill="url(#paint1_linear_1916_1781)"/>
<path d="M533.709 306.643L532.489 311.857C532.489 311.857 522.725 306.842 520.97 300.495C519.215 294.147 523.911 291.728 523.911 291.728L533.014 295.593L533.709 306.643Z" fill="white"/>
<path opacity="0.1" d="M533.709 306.643L532.489 311.857C532.489 311.857 522.725 306.842 520.97 300.495C519.215 294.147 523.911 291.728 523.911 291.728L533.014 295.593L533.709 306.643Z" fill="black"/>
<path d="M478.911 484.087C478.911 484.087 469.881 487.419 463.672 487.838C460.376 488.059 458.643 486.031 457.752 484.075C457.267 482.997 456.951 481.85 456.815 480.675L457.633 471.693L458.062 466.915L471.252 463.47L473.12 469.211L473.295 469.641C474.04 471.562 477.054 479.349 476.964 480.976C476.957 481.396 477.034 481.814 477.192 482.204C477.351 482.593 477.586 482.947 477.884 483.242C478.189 483.566 478.534 483.85 478.911 484.087Z" fill="white"/>
<path d="M540.566 479.518C540.589 479.793 540.563 480.07 540.487 480.334C540.487 480.334 521.173 483.565 517.223 480.334C516.112 479.391 514.818 478.69 513.422 478.277C512.026 477.865 510.56 477.749 509.118 477.937C509.118 477.937 501.645 478.141 500.398 475.67C499.879 474.633 500.014 472.621 500.336 470.644C500.664 468.783 501.102 466.944 501.645 465.135L501.944 464.897L503.722 463.463L524.537 462.846H524.695C524.594 467.119 531.756 472.021 531.756 472.021C539.381 474.854 540.504 478.056 540.566 479.518Z" fill="white"/>
<path opacity="0.1" d="M540.572 479.519C540.592 479.794 540.563 480.07 540.487 480.335C540.487 480.335 521.173 483.565 517.228 480.335C516.117 479.391 514.822 478.69 513.425 478.277C512.028 477.864 510.561 477.749 509.118 477.938C509.118 477.938 501.639 478.142 500.392 475.671C499.879 474.634 500.008 472.622 500.33 470.639C503.209 470.928 507.752 471.647 509.535 473.37C512.233 475.977 516.805 478.584 519.604 478.794C521.817 478.93 534.973 479.349 540.572 479.519Z" fill="black"/>
<path opacity="0.1" d="M478.911 484.087C478.911 484.087 469.881 487.419 463.672 487.838C460.376 488.059 458.643 486.031 457.752 484.075C460.054 484.852 463.243 485.662 464.92 484.92C466.906 484.03 473.95 483.463 477.901 483.22C478.199 483.552 478.538 483.843 478.911 484.087Z" fill="black"/>
<path d="M492.31 215.527C484.86 212.62 475.276 203.014 477.669 198.526C478.198 197.392 478.514 196.17 478.601 194.921C478.755 193.226 478.777 191.52 478.668 189.821C478.5 187.036 478.167 184.264 477.669 181.519C477.669 181.519 500.928 182.046 499.574 185.486C499.179 186.5 499.111 188.251 499.224 190.206C499.337 192.161 499.613 194.389 499.907 196.264C500.307 198.832 500.719 200.798 500.719 200.798C500.719 200.798 499.291 202.799 498.462 202.906C497.632 203.014 503 219.692 492.31 215.527Z" fill="#CF6F80"/>
<path opacity="0.1" d="M473.273 469.613L473.098 469.806C466.144 461.362 457.735 471.891 457.735 471.891L457.611 471.664L458.04 466.887L471.23 463.441L473.098 469.182L473.273 469.613Z" fill="black"/>
<path opacity="0.1" d="M524.706 463.441C524.706 463.441 519.627 463.339 516.918 465.742C514.209 468.145 501.114 466.258 501.679 465.742C501.843 465.48 501.944 465.183 501.972 464.875L503.75 463.441L524.565 462.823C524.644 463.22 524.706 463.441 524.706 463.441Z" fill="black"/>
<path d="M481.925 397.13C481.547 398.07 481.26 399.043 481.067 400.037C480.596 402.761 480.465 405.533 480.678 408.289C480.886 412.256 480.678 438.84 480.678 438.84C480.678 438.84 476.213 445.93 473.718 448.429C471.224 450.928 478.798 455.417 478.798 455.417C479.927 461.883 473.086 469.182 473.086 469.182C466.133 460.738 457.723 471.262 457.723 471.262C457.723 471.262 453.152 463.328 452.012 460.494C450.872 457.661 456.476 455.706 458.446 454.549C460.416 453.393 458.344 446.616 458.344 446.616C458.344 446.616 456.685 440.671 454.709 435.247C452.734 429.824 456.888 402.831 456.888 402.831C456.888 402.831 457.103 398.031 457.616 396.359C457.872 395.153 457.924 393.911 457.769 392.687C457.735 392.273 457.695 391.933 457.667 391.695C457.639 391.457 457.616 391.355 457.616 391.355L457.695 391.219L460.517 385.938C460.517 385.938 483.279 393.803 481.925 397.13Z" fill="#6B5BD4"/>
<path d="M524.706 462.818C524.706 462.818 519.627 462.711 516.918 465.085C514.209 467.46 501.115 465.607 501.679 465.085C502.243 464.564 502.193 460.71 502.193 460.71C494.511 450.175 501.064 445.902 501.064 445.902C501.064 445.902 497.638 429.326 497.017 423.177C496.582 418.887 496.046 407.309 495.758 400.752C495.634 397.918 495.561 395.963 495.561 395.963L501.781 394.722L502.588 394.563L517.725 391.509C517.725 391.509 518.142 394.342 518.425 396.66C518.567 397.649 518.645 398.647 518.656 399.647C518.56 400.78 518.656 404.334 518.656 404.334L519.175 414.965C518.84 416.081 518.666 417.239 518.656 418.405C518.763 419.765 520.733 439.152 520.733 439.152C520.733 439.152 524.159 450.725 522.991 451.558C521.822 452.391 524.706 462.818 524.706 462.818Z" fill="#6B5BD4"/>
<path opacity="0.1" d="M499.574 185.502C499.179 186.517 499.111 188.268 499.224 190.223C496.108 192.107 492.527 193.07 488.891 193.002C485.255 192.933 481.712 191.837 478.668 189.837C478.5 187.053 478.167 184.28 477.669 181.535C477.669 181.535 500.928 182.062 499.574 185.502Z" fill="black"/>
<path d="M508.553 172.99C508.615 178.131 506.639 183.087 503.062 186.767C499.484 190.446 494.597 192.548 489.477 192.609C484.356 192.671 479.42 190.687 475.756 187.095C472.091 183.503 469.998 178.596 469.937 173.454C469.937 173.296 469.937 173.148 469.937 172.99C469.937 167.846 471.972 162.914 475.594 159.277C479.216 155.64 484.128 153.597 489.251 153.597C494.373 153.597 499.286 155.64 502.908 159.277C506.53 162.914 508.565 167.846 508.565 172.99H508.553Z" fill="#CF6F80"/>
<path opacity="0.1" d="M492.31 215.527C484.86 212.619 475.276 203.014 477.669 198.525C478.198 197.392 478.514 196.17 478.601 194.921L488.799 203.342L495.109 208.539L499.907 196.281C500.307 198.848 500.719 200.815 500.719 200.815C500.719 200.815 499.291 202.815 498.462 202.923C497.632 203.031 503 219.692 492.31 215.527Z" fill="black"/>
<path d="M518.684 252.743L510.167 396.405L499.06 397.136L470.292 313.835L475.011 214.938L476.01 194.043L488.799 204.59L495.109 209.786L500.048 197.166L509.23 205.202L518.684 252.743Z" fill="#6B5BD4"/>
<path opacity="0.1" d="M481.925 397.13C481.547 398.069 481.26 399.043 481.067 400.037C472.977 398.786 465.12 396.324 457.757 392.732L457.605 392.653L457.656 391.74V391.264L460.478 385.982C460.478 385.982 483.28 393.803 481.925 397.13Z" fill="black"/>
<path opacity="0.1" d="M501.967 400.06C499.901 400.415 497.817 400.655 495.724 400.78C495.6 397.946 495.527 395.991 495.527 395.991L501.78 394.722L501.967 400.06Z" fill="black"/>
<path opacity="0.1" d="M518.447 396.66C514.434 397.709 508.232 398.887 502.689 398.151L502.61 394.563L517.747 391.509C517.747 391.509 518.148 394.32 518.447 396.66Z" fill="black"/>
<path opacity="0.1" d="M502.588 398.807C479.447 402.774 458.254 391.4 458.254 391.4L458.457 387.547C458.457 387.547 458.982 343.859 457.526 340.509C456.07 337.16 454.935 320.198 455.759 317.609C456.583 315.019 452.751 275.916 452.751 275.916L452.13 260.048L429.39 250.77L439.55 229.502C440.921 226.52 442.102 223.454 443.083 220.321C444.849 214.795 453.05 209.372 453.05 209.372C453.05 209.372 461.46 203.954 464.784 204.158C468.108 204.362 472.465 199.364 472.465 199.364C475.683 191.13 478.595 194.83 478.595 194.83C478.595 195.227 478.595 194.83 478.437 196.049C477.308 205.088 496.69 233.65 496.966 234.16L498.834 279.304L500.702 336.435L502.588 398.807Z" fill="black"/>
<path d="M501.967 398.807C478.826 402.774 457.627 391.4 457.627 391.4L457.836 387.547C457.836 387.547 458.356 343.859 456.899 340.509C455.443 337.16 454.309 320.181 455.138 317.569C455.968 314.956 452.113 275.893 452.113 275.893L451.487 260.025L428.753 250.748L438.912 229.479C440.281 226.498 441.461 223.434 442.445 220.304C444.212 214.795 452.441 209.366 452.441 209.366C452.441 209.366 460.85 203.949 464.169 204.153C467.488 204.357 471.867 199.364 471.867 199.364C475.09 191.13 478.64 194.83 478.64 194.83C478.64 195.227 478.301 195.397 478.482 196.049C480.965 204.816 496.114 233.65 496.39 234.16L498.259 279.304L500.087 336.463L501.967 398.807Z" fill="white"/>
<path opacity="0.1" d="M495.73 235.435C493.241 234.392 480.057 219.278 480.057 219.278V215.838C479.577 214.705 476.721 215.396 474.413 216.19L475.406 195.295L476.535 196.236C479.001 204.997 495.459 234.931 495.73 235.435Z" fill="black"/>
<path d="M496.357 234.189C493.862 233.14 480.677 218.032 480.677 218.032V214.586C480.198 213.453 477.347 214.144 475.033 214.937L476.01 194.065L477.139 195.001C479.628 203.751 496.08 233.679 496.357 234.189Z" fill="white"/>
<path opacity="0.1" d="M458.254 309.562C458.564 309.562 474.345 307.896 474.345 307.896C474.345 307.896 483.9 326.767 483.274 331.352C482.647 335.937 481.513 340.006 477.669 339.286C473.826 338.566 456.984 339.853 456.984 339.853L458.254 309.562Z" fill="black"/>
<path d="M457.627 308.309C457.943 308.309 473.724 306.643 473.724 306.643C473.724 306.643 483.274 325.542 482.653 330.076C482.032 334.61 480.886 338.73 477.048 338.01C473.21 337.29 456.357 338.577 456.357 338.577L457.627 308.309Z" fill="white"/>
<path d="M469.519 299.474C469.519 299.474 484.002 307.294 484.312 309.674C484.623 312.055 476.941 308.632 475.282 308.212C474.189 307.952 473.078 307.777 471.958 307.691L460.89 307.991L469.519 299.474Z" fill="#CF6F80"/>
<path opacity="0.1" d="M491.683 236.41C492.525 236.41 493.207 235.725 493.207 234.88C493.207 234.035 492.525 233.35 491.683 233.35C490.842 233.35 490.159 234.035 490.159 234.88C490.159 235.725 490.842 236.41 491.683 236.41Z" fill="black"/>
<path d="M491.683 235.787C492.525 235.787 493.207 235.102 493.207 234.257C493.207 233.412 492.525 232.727 491.683 232.727C490.842 232.727 490.159 233.412 490.159 234.257C490.159 235.102 490.842 235.787 491.683 235.787Z" fill="#3F3D56"/>
<path opacity="0.1" d="M494.488 302.647C495.33 302.647 496.012 301.962 496.012 301.117C496.012 300.272 495.33 299.587 494.488 299.587C493.647 299.587 492.965 300.272 492.965 301.117C492.965 301.962 493.647 302.647 494.488 302.647Z" fill="black"/>
<path d="M494.488 302.018C495.33 302.018 496.012 301.333 496.012 300.488C496.012 299.643 495.33 298.958 494.488 298.958C493.647 298.958 492.965 299.643 492.965 300.488C492.965 301.333 493.647 302.018 494.488 302.018Z" fill="#3F3D56"/>
<path opacity="0.1" d="M493.207 269.529C494.049 269.529 494.731 268.844 494.731 267.999C494.731 267.154 494.049 266.469 493.207 266.469C492.366 266.469 491.683 267.154 491.683 267.999C491.683 268.844 492.366 269.529 493.207 269.529Z" fill="black"/>
<path d="M493.207 268.906C494.049 268.906 494.731 268.221 494.731 267.376C494.731 266.531 494.049 265.846 493.207 265.846C492.366 265.846 491.683 266.531 491.683 267.376C491.683 268.221 492.366 268.906 493.207 268.906Z" fill="#3F3D56"/>
<path d="M528.335 307.374C528.335 307.374 529.374 308.938 528.335 309.641C527.297 310.344 528.437 312.146 528.437 312.146C528.437 312.146 525.846 313.665 526.986 315.042C528.127 316.419 527.404 322.602 527.404 322.602L524.289 327.81C524.289 327.81 524.475 331.148 524.486 335.659C524.486 342.698 524.074 352.592 521.794 357.103L522.099 394.115C522.099 394.115 511.189 398.122 502.057 396.898L500.702 337.506C500.702 337.506 502.678 303.827 503.406 297.366C503.832 294.012 504.006 290.631 503.925 287.25C503.925 287.25 503.615 277.14 502.571 272.453C502.571 272.453 501.442 252.12 501.329 246.492C501.278 243.8 501.419 235.946 501.577 228.476C501.752 220.31 501.95 212.608 501.95 212.608L499.89 196.236C499.89 196.236 501.95 196.032 502.571 196.86C502.849 197.12 503.151 197.354 503.474 197.557C507.035 199.971 519.599 207.395 519.599 207.395C519.599 207.395 526.552 210.172 528.217 214.15C529.882 218.128 531.039 220.951 531.846 222.084C532.653 223.217 533.093 228.544 533.093 228.544C533.093 228.544 535.486 238.349 537.355 240.009C539.223 241.67 540.566 252.21 540.566 252.21L524.057 265.245C524.057 265.245 522.607 286.927 522.296 287.766C521.986 288.605 528.335 307.374 528.335 307.374Z" fill="white"/>
<path d="M528.962 307.374C528.962 307.374 529.995 308.938 528.962 309.641C527.929 310.343 529.058 312.146 529.058 312.146C529.058 312.146 526.467 313.664 527.607 315.041C528.748 316.419 528.025 322.601 528.025 322.601L524.921 327.81C524.921 327.81 525.107 331.147 525.124 335.658C525.124 342.697 524.712 352.592 522.432 357.103L522.742 394.115C522.742 394.115 511.832 398.122 502.7 396.898L501.352 337.506C501.352 337.506 503.321 303.826 504.055 297.366C504.482 294.012 504.653 290.63 504.569 287.25C504.569 287.25 504.258 277.14 503.22 272.453C503.22 272.453 502.091 252.119 501.972 246.492C501.922 243.8 502.063 235.945 502.221 228.476C502.396 220.31 502.593 212.608 502.593 212.608L499.873 196.015C499.873 196.015 502.593 196.015 503.22 196.859C503.495 197.123 503.798 197.357 504.123 197.556C507.678 199.97 520.242 207.394 520.242 207.394C520.242 207.394 527.179 210.171 528.872 214.149C530.565 218.128 531.694 220.95 532.501 222.083C533.308 223.217 533.748 228.544 533.748 228.544C533.748 228.544 536.141 238.348 538.009 240.009C539.878 241.669 541.226 252.21 541.226 252.21L524.718 265.244C524.718 265.244 523.267 286.927 522.951 287.766C522.635 288.604 528.962 307.374 528.962 307.374Z" fill="white"/>
<path opacity="0.1" d="M509.191 217.42L510.687 221.783L502.836 229.717C503.011 221.551 503.208 213.849 503.208 213.849L500.488 197.262C500.488 197.262 503.208 197.262 503.835 198.106C504.11 198.37 504.413 198.604 504.738 198.803L511.409 218.122L509.191 217.42Z" fill="black"/>
<path d="M508.553 216.167L510.049 220.525L502.204 228.459C502.373 220.293 502.576 212.591 502.576 212.591L499.85 195.998C499.85 195.998 502.576 195.998 503.197 196.842C503.474 197.105 503.777 197.338 504.1 197.54L510.811 216.876L508.553 216.167Z" fill="white"/>
<path opacity="0.1" d="M508.553 172.99C508.555 175.032 508.235 177.061 507.605 179.002C507.499 179.02 507.39 179.016 507.285 178.991C507.181 178.966 507.082 178.92 506.996 178.855C506.843 173.755 504.348 168.96 501.272 164.886C500.407 163.657 499.361 162.567 498.168 161.655C496.961 160.746 495.461 160.32 493.958 160.46C492.265 160.692 490.769 161.848 489.059 161.995C486.801 162.182 484.781 160.613 482.54 160.539C481.629 160.547 480.73 160.75 479.904 161.135C479.077 161.52 478.342 162.078 477.748 162.772C476.57 164.167 475.695 165.794 475.18 167.549C474.293 170.212 473.81 172.993 473.747 175.801C473.718 177.387 473.566 179.376 472.099 179.955C472.21 178.788 472.078 177.612 471.712 176.5C471.345 175.387 470.752 174.364 469.971 173.494L469.937 173.454C469.937 173.296 469.937 173.148 469.937 172.99C469.937 167.846 471.972 162.914 475.594 159.277C479.216 155.64 484.128 153.597 489.251 153.597C494.373 153.597 499.286 155.64 502.908 159.277C506.53 162.914 508.565 167.846 508.565 172.99H508.553Z" fill="black"/>
<path d="M497.265 142.2C494.332 140.814 490.997 140.552 487.885 141.463C486.322 141.928 484.849 142.681 483.263 143.061C479.876 143.883 475.925 142.993 473.019 144.982C471.404 146.116 470.434 147.906 469.531 149.652L467.273 153.965C466.043 156.328 464.801 158.731 464.287 161.332C463.774 163.933 464.084 166.846 465.727 168.943C466.917 170.462 468.69 171.419 469.988 172.853C470.768 173.727 471.359 174.754 471.724 175.869C472.089 176.984 472.221 178.162 472.11 179.331C473.577 178.764 473.724 176.763 473.758 175.177C473.821 172.37 474.305 169.588 475.192 166.925C475.707 165.171 476.581 163.543 477.76 162.148C478.353 161.453 479.088 160.894 479.914 160.508C480.741 160.122 481.64 159.918 482.551 159.909C484.809 159.989 486.835 161.559 489.07 161.366C490.763 161.224 492.265 160.068 493.969 159.836C495.472 159.693 496.974 160.119 498.18 161.032C499.373 161.941 500.418 163.03 501.278 164.262C504.36 168.342 506.86 173.114 507.007 178.231C507.645 178.696 508.565 178.084 508.881 177.359C509.197 176.633 509.208 175.783 509.609 175.092C510.072 174.293 510.958 173.862 511.652 173.261C513.413 171.737 513.853 169.17 513.785 166.84C513.718 164.511 513.266 162.148 513.706 159.858C513.972 158.459 514.57 157.138 514.897 155.75C515.225 154.361 515.264 152.803 514.491 151.607C513.362 149.856 510.986 149.505 508.915 149.34C506.561 149.136 504.456 149.397 502.954 147.408C502.248 146.371 501.455 145.397 500.584 144.495C500.274 144.194 497.265 142.324 497.265 142.2Z" fill="#512E4E"/>
<path opacity="0.1" d="M435.904 261.708L430.011 250.765L428.143 267.653C428.143 267.653 429.182 275.156 428.973 276.306C428.764 277.457 433.228 287.771 433.228 287.771C433.228 287.771 447.976 314.152 453.998 315.506L474.317 300.907L468.921 294.028C468.921 294.028 467.053 293.297 466.584 294.028C466.584 294.028 456.561 276.72 455.528 275.473C454.495 274.227 454.692 271.716 454.692 271.716C454.692 271.716 453.135 270.05 453.654 268.486C454.173 266.922 450.674 261.504 450.674 261.504L453.891 258.483L435.904 261.708Z" fill="black"/>
<path d="M430.322 249.513L428.764 250.765L426.896 267.653C426.896 267.653 427.934 275.156 427.725 276.307C427.517 277.457 431.987 287.771 431.987 287.771C431.987 287.771 446.729 314.152 452.751 315.506L473.103 300.908L467.702 294.028C467.702 294.028 465.834 293.297 465.365 294.028C465.365 294.028 455.347 276.721 454.309 275.474C453.27 274.227 453.479 271.717 453.479 271.717C453.479 271.717 451.921 270.05 452.441 268.486C452.96 266.922 449.427 261.504 449.427 261.504L452.644 258.484L430.322 249.513Z" fill="white"/>
<path opacity="0.1" d="M526.987 315.693C528.115 317.07 527.404 323.259 527.404 323.259L524.289 328.433C524.289 328.433 524.475 331.776 524.486 336.287L519.249 337.931C518.775 338.079 518.272 338.112 517.783 338.025C517.294 337.939 516.832 337.737 516.437 337.435C516.041 337.133 515.723 336.741 515.51 336.291C515.296 335.841 515.192 335.346 515.208 334.848L516.116 305.605L528.335 310.292C527.297 311.018 528.437 312.797 528.437 312.797C528.437 312.797 525.846 314.316 526.987 315.693Z" fill="black"/>
<path d="M527.608 315.07C528.736 316.441 528.025 322.63 528.025 322.63L524.921 327.809C524.921 327.809 525.107 331.147 525.124 335.658L519.791 337.33C519.327 337.476 518.836 337.508 518.358 337.425C517.88 337.341 517.429 337.144 517.042 336.849C516.655 336.555 516.344 336.171 516.135 335.732C515.926 335.292 515.825 334.808 515.84 334.321L516.749 304.977L528.962 309.675C527.918 310.4 529.058 312.179 529.058 312.179C529.058 312.179 526.468 313.693 527.608 315.07Z" fill="white"/>
<path d="M531.66 301.118C531.66 301.118 530.83 306.439 528.753 306.751C526.676 307.063 525.745 315.36 523.674 315.071C521.602 314.782 522.974 307.352 523.047 305.912C523.121 304.473 520.79 298.511 522.528 297.157C524.266 295.802 529.797 297.157 529.797 297.157L531.66 301.118Z" fill="#CF6F80"/>
<path opacity="0.1" d="M536.051 260.144L539.962 252.21C539.962 252.21 541.526 258.257 541.526 261.487C541.526 264.717 543.704 265.035 543.704 265.035C543.704 265.035 546.092 267.868 544.833 269.937C543.575 272.005 543.072 277.128 543.072 277.128C543.072 277.128 543.484 286.927 541.616 288.281C539.748 289.636 539.33 292.872 539.33 292.872C539.33 292.872 535.904 299.021 536.012 300.483C536.119 301.945 531.237 311.845 531.237 311.845C531.237 311.845 533.624 299.542 519.712 294.226C519.712 294.226 519.604 290.055 520.643 288.91C521.681 287.766 523.301 287.21 522.285 281.452C521.269 275.695 521.992 268.752 521.992 267.364C521.992 265.975 525.107 257.322 525.107 257.322L536.051 260.144Z" fill="black"/>
<path d="M537.789 251.077L541.21 252.211C541.21 252.211 542.773 258.257 542.773 261.488C542.773 264.718 544.952 265.035 544.952 265.035C544.952 265.035 547.339 267.869 546.08 269.937C544.822 272.006 544.314 277.129 544.314 277.129C544.314 277.129 544.731 286.927 542.863 288.282C540.995 289.636 540.606 292.872 540.606 292.872C540.606 292.872 537.18 299.021 537.287 300.483C537.394 301.945 532.507 311.846 532.507 311.846C532.507 311.846 534.894 299.542 520.981 294.227C520.981 294.227 520.88 290.056 521.918 288.911C522.957 287.766 524.577 287.211 523.561 281.453C522.545 275.695 523.267 268.753 523.267 267.364C523.267 265.976 526.383 257.322 526.383 257.322L537.789 251.077Z" fill="white"/>
<path opacity="0.1" d="M462.227 456.72C462.227 456.72 467.679 453.28 471.258 455.779C474.836 458.279 462.227 456.72 462.227 456.72Z" fill="black"/>
<path opacity="0.1" d="M504.603 446.082C504.603 446.082 509.428 445.459 513.48 449.84C517.533 454.22 504.603 446.082 504.603 446.082Z" fill="black"/>
<g opacity="0.1">
<path opacity="0.1" d="M511.652 172.014C510.958 172.621 510.066 173.046 509.603 173.845C509.208 174.53 509.197 175.381 508.881 176.112C508.565 176.843 507.645 177.449 507.001 176.984C506.855 171.884 504.354 167.095 501.278 163.015C500.418 161.785 499.373 160.697 498.18 159.79C496.973 158.876 495.469 158.448 493.964 158.589C492.27 158.821 490.78 159.977 489.07 160.125C486.813 160.312 484.786 158.742 482.546 158.668C481.635 158.675 480.737 158.878 479.911 159.263C479.086 159.648 478.352 160.207 477.76 160.901C476.581 162.296 475.707 163.924 475.192 165.678C474.305 168.341 473.821 171.123 473.758 173.93C473.724 175.511 473.577 177.483 472.121 178.072C472.155 178.493 472.155 178.916 472.121 179.336C473.594 178.77 473.741 176.769 473.775 175.182C473.838 172.375 474.322 169.594 475.209 166.931C475.724 165.176 476.598 163.549 477.777 162.153C478.369 161.459 479.103 160.901 479.929 160.515C480.754 160.128 481.652 159.924 482.563 159.915C484.82 159.994 486.852 161.564 489.087 161.371C490.78 161.23 492.282 160.074 493.981 159.841C495.485 159.699 496.989 160.125 498.197 161.037C499.39 161.946 500.435 163.036 501.295 164.267C504.371 168.348 506.872 173.119 507.018 178.237C507.662 178.701 508.582 178.089 508.898 177.364C509.214 176.639 509.225 175.789 509.62 175.097C510.083 174.298 510.975 173.867 511.669 173.267C513.43 171.742 513.87 169.175 513.802 166.846C513.802 166.772 513.802 166.704 513.802 166.63C513.689 168.659 513.153 170.716 511.652 172.014Z" fill="black"/>
<path opacity="0.1" d="M469.982 171.618C468.69 170.184 466.918 169.221 465.727 167.702C464.721 166.361 464.148 164.744 464.084 163.066C463.907 165.164 464.49 167.255 465.727 168.955C466.918 170.473 468.69 171.431 469.982 172.865C471.231 174.267 471.981 176.044 472.116 177.92C472.201 176.779 472.055 175.633 471.689 174.551C471.322 173.468 470.742 172.47 469.982 171.618Z" fill="black"/>
<path opacity="0.1" d="M514.897 154.503C514.564 155.891 513.972 157.212 513.701 158.612C513.538 159.558 513.479 160.52 513.526 161.479C513.544 160.937 513.603 160.397 513.701 159.864C513.972 158.464 514.564 157.144 514.897 155.755C515.089 154.989 515.152 154.196 515.084 153.409C515.047 153.778 514.985 154.143 514.897 154.503Z" fill="black"/>
</g>
<path opacity="0.1" d="M74.9129 475.404C105.286 475.404 129.908 471.433 129.908 466.535C129.908 461.637 105.286 457.666 74.9129 457.666C44.5399 457.666 19.9177 461.637 19.9177 466.535C19.9177 471.433 44.5399 475.404 74.9129 475.404Z" fill="#6B5BD4"/>
<path d="M76.685 296.629H73.1462V376.632H76.685V296.629Z" fill="#535461"/>
<path d="M98.9283 376.394L98.7025 379.998L98.3921 385.099L98.2623 387.218L97.9462 392.319L97.8108 394.438L97.5004 399.539L93.9277 457.383C93.7754 459.872 92.6833 462.208 90.8741 463.916C89.065 465.625 86.6751 466.575 84.1918 466.575H65.6399C63.1498 466.576 60.7537 465.62 58.9432 463.904C57.1328 462.187 56.0453 459.84 55.904 457.343L52.3314 399.499L52.0209 394.398L51.8911 392.279L51.5694 387.179L51.4396 385.059L51.1292 379.959L50.9034 376.354C50.8644 375.663 50.9657 374.972 51.2013 374.322C51.4369 373.671 51.8018 373.076 52.2738 372.572C52.7459 372.068 53.3151 371.665 53.947 371.389C54.5788 371.113 55.26 370.968 55.9492 370.965H93.8882C94.5804 370.969 95.2645 371.115 95.8985 371.394C96.5324 371.673 97.1029 372.079 97.5749 372.587C98.0469 373.096 98.4104 373.696 98.6431 374.35C98.8759 375.005 98.9729 375.7 98.9283 376.394Z" fill="#3F3D56"/>
<path d="M98.7025 379.993L98.3865 385.082H51.4396L51.1235 379.993H98.7025Z" fill="#9D9CB5"/>
<path d="M98.2566 387.201L97.9461 392.29H51.8854L51.5693 387.201H98.2566Z" fill="#9D9CB5"/>
<path d="M97.8106 394.416L97.5002 399.499H52.3312L52.0151 394.416H97.8106Z" fill="#9D9CB5"/>
<path d="M45.7447 326.62C66.3567 341.592 74.9412 365.009 74.9412 365.009C74.9412 365.009 50.1076 364.153 29.49 349.181C8.87243 334.208 0.276611 310.809 0.276611 310.809C0.276611 310.809 25.1102 311.647 45.7447 326.62Z" fill="#6B5BD4"/>
<path d="M0.276611 310.809C0.276611 310.809 26.0528 325.175 34.3213 337.07C42.5897 348.965 74.9186 365.02 74.9186 365.02" stroke="#535461" stroke-width="2" stroke-miterlimit="10"/>
<path d="M59.025 296.459C70.2453 304.602 74.9186 317.348 74.9186 317.348C74.9186 317.348 61.3729 316.883 50.1809 308.739C38.9888 300.596 34.2874 287.845 34.2874 287.845C34.2874 287.845 47.8104 288.309 59.025 296.459Z" fill="#6B5BD4"/>
<path d="M34.2874 287.845C34.2874 287.845 48.3184 295.665 52.8223 302.137C57.3262 308.609 74.9186 317.348 74.9186 317.348" stroke="#535461" stroke-width="2" stroke-miterlimit="10"/>
<path d="M91.2185 316.703C78.3332 330.921 75.6072 349.504 75.6072 349.504C75.6072 349.504 93.7752 345.027 106.649 330.802C119.523 316.578 122.261 298.001 122.261 298.001C122.261 298.001 104.104 302.484 91.2185 316.703Z" fill="#6B5BD4"/>
<path d="M122.272 298.006C122.272 298.006 105.487 312.582 101.22 322.624C96.9528 332.666 75.6072 349.503 75.6072 349.503" stroke="#535461" stroke-width="2" stroke-miterlimit="10"/>
</g>
<defs>
<linearGradient id="paint0_linear_1916_1781" x1="262.746" y1="473.523" x2="262.746" y2="146.161" gradientUnits="userSpaceOnUse">
<stop stop-color="#808080" stop-opacity="0.25"/>
<stop offset="0.54" stop-color="#808080" stop-opacity="0.12"/>
<stop offset="1" stop-color="#808080" stop-opacity="0.1"/>
</linearGradient>
<linearGradient id="paint1_linear_1916_1781" x1="107394" y1="306791" x2="107394" y2="92220.9" gradientUnits="userSpaceOnUse">
<stop stop-color="#808080" stop-opacity="0.25"/>
<stop offset="0.54" stop-color="#808080" stop-opacity="0.12"/>
<stop offset="1" stop-color="#808080" stop-opacity="0.1"/>
</linearGradient>
<clipPath id="clip0_1916_1781">
<rect width="659" height="489" fill="white"/>
</clipPath>
</defs>
</svg>
