<svg width="58" height="58" viewBox="0 0 58 58" fill="none" xmlns="http://www.w3.org/2000/svg">
<circle cx="29" cy="29" r="29" fill="#6051BF"/>
<path d="M26.5 12H19.7319C19.5848 12 19.4452 12.0648 19.3502 12.177L14.6964 17.677C14.4214 18.002 14.6524 18.5 15.0781 18.5H26C26.2761 18.5 26.5 18.7239 26.5 19V44.119C26.5 44.5866 27.0847 44.7983 27.3841 44.4391L33.8841 36.6391C33.959 36.5492 34 36.4359 34 36.319V12.5C34 12.2239 34.2239 12 34.5 12H43.4597C43.8789 12 44.112 12.485 43.8501 12.8123L40.6501 16.8123C40.5552 16.931 40.4116 17 40.2597 17H37" stroke="white" stroke-width="1.5"/>
</svg>
