<svg width="660" height="490" viewBox="0 0 660 490" fill="none" xmlns="http://www.w3.org/2000/svg">
<g clip-path="url(#clip0_1919_1540)">
<path d="M652.892 321.637H193.488C191.603 321.635 189.797 320.732 188.464 319.126C187.132 317.521 186.382 315.345 186.38 313.075V8.5627C186.382 6.29252 187.132 4.11605 188.464 2.51079C189.797 0.905526 191.603 0.00256575 193.488 0H652.892C654.777 0.00257031 656.583 0.90554 657.916 2.5108C659.248 4.11606 659.998 6.29252 660 8.5627V313.075C659.998 315.345 659.248 317.521 657.916 319.126C656.583 320.732 654.777 321.635 652.892 321.637Z" fill="#E6E6E6"/>
<path d="M643.2 309.961H203.18C201.296 309.959 199.489 309.056 198.157 307.45C196.824 305.845 196.075 303.669 196.072 301.399V20.2395C196.075 17.9693 196.824 15.7928 198.156 14.1875C199.489 12.5823 201.296 11.6793 203.18 11.6768H643.2C645.085 11.6793 646.891 12.5823 648.224 14.1876C649.556 15.7928 650.306 17.9693 650.308 20.2395V301.399C650.306 303.669 649.556 305.845 648.224 307.45C646.891 309.056 645.085 309.959 643.2 309.961Z" fill="white"/>
<path d="M326.308 185.157H243.525C242.611 185.156 241.734 184.717 241.087 183.938C240.441 183.159 240.077 182.103 240.076 181.001V77.135C240.077 76.0333 240.441 74.977 241.087 74.198C241.734 73.419 242.611 72.9808 243.525 72.9795H326.308C327.222 72.9808 328.099 73.419 328.746 74.198C329.392 74.9771 329.756 76.0333 329.757 77.135V181.001C329.756 182.103 329.392 183.159 328.746 183.938C328.099 184.717 327.222 185.156 326.308 185.157ZM243.525 74.6417C242.976 74.6424 242.45 74.9053 242.062 75.3727C241.674 75.8402 241.456 76.4739 241.456 77.135V181.001C241.456 181.663 241.674 182.296 242.062 182.764C242.45 183.231 242.976 183.494 243.525 183.495H326.308C326.857 183.494 327.383 183.231 327.771 182.764C328.159 182.296 328.377 181.663 328.378 181.001V77.135C328.377 76.4739 328.159 75.8402 327.771 75.3727C327.383 74.9053 326.857 74.6424 326.308 74.6417H243.525Z" fill="#3F3D56"/>
<path d="M464.582 185.157H381.799C380.884 185.156 380.008 184.717 379.361 183.938C378.714 183.159 378.351 182.103 378.349 181.001V77.135C378.351 76.0333 378.714 74.9771 379.361 74.198C380.008 73.419 380.884 72.9808 381.799 72.9795H464.582C465.496 72.9808 466.373 73.419 467.019 74.198C467.666 74.9771 468.03 76.0333 468.031 77.135V181.001C468.03 182.103 467.666 183.159 467.019 183.938C466.373 184.717 465.496 185.156 464.582 185.157ZM381.799 74.6417C381.25 74.6424 380.724 74.9054 380.336 75.3728C379.948 75.8402 379.73 76.4739 379.729 77.135V181.001C379.73 181.663 379.948 182.296 380.336 182.764C380.724 183.231 381.25 183.494 381.799 183.495H464.582C465.13 183.494 465.656 183.231 466.044 182.764C466.432 182.296 466.651 181.663 466.651 181.001V77.135C466.651 76.4739 466.432 75.8402 466.044 75.3728C465.656 74.9054 465.13 74.6424 464.582 74.6417H381.799Z" fill="#3F3D56"/>
<path d="M602.855 185.157H520.072C519.158 185.156 518.281 184.717 517.635 183.938C516.988 183.159 516.624 182.103 516.623 181.001V77.135C516.624 76.0333 516.988 74.9771 517.635 74.198C518.281 73.419 519.158 72.9808 520.072 72.9795H602.855C603.77 72.9808 604.646 73.419 605.293 74.198C605.94 74.9771 606.303 76.0333 606.305 77.135V181.001C606.303 182.103 605.94 183.159 605.293 183.938C604.646 184.717 603.77 185.156 602.855 185.157ZM520.072 74.6417C519.524 74.6424 518.998 74.9053 518.61 75.3727C518.222 75.8402 518.003 76.4739 518.003 77.135V181.001C518.003 181.663 518.222 182.296 518.61 182.764C518.998 183.231 519.524 183.494 520.072 183.495H602.855C603.404 183.494 603.93 183.231 604.318 182.764C604.706 182.296 604.924 181.663 604.925 181.001V77.135C604.924 76.4739 604.706 75.8402 604.318 75.3727C603.93 74.9053 603.404 74.6424 602.855 74.6417H520.072Z" fill="#3F3D56"/>
<path d="M268.931 248.658C269.238 248.658 269.543 248.585 269.827 248.444C270.111 248.302 270.37 248.094 270.587 247.833C270.805 247.571 270.977 247.26 271.095 246.918C271.213 246.575 271.274 246.208 271.274 245.838C271.274 245.467 271.213 245.101 271.096 244.758C270.978 244.416 270.806 244.105 270.588 243.843C270.371 243.581 270.113 243.373 269.829 243.231C269.545 243.089 269.24 243.016 268.933 243.016H247.919C247.297 243.016 246.702 243.313 246.263 243.842C245.824 244.371 245.577 245.089 245.577 245.837C245.577 246.585 245.824 247.303 246.263 247.832C246.702 248.361 247.297 248.658 247.919 248.658H268.931Z" fill="#E6E6E6"/>
<path d="M321.914 232.036C322.535 232.037 323.132 231.741 323.572 231.213C324.011 230.685 324.259 229.968 324.26 229.22C324.262 228.472 324.016 227.754 323.578 227.224C323.139 226.693 322.544 226.395 321.923 226.394H247.919C247.298 226.395 246.704 226.693 246.265 227.222C245.827 227.751 245.581 228.467 245.581 229.215C245.581 229.962 245.827 230.679 246.265 231.208C246.704 231.737 247.298 232.035 247.919 232.036H321.914Z" fill="#E6E6E6"/>
<path d="M407.205 248.658C407.826 248.658 408.421 248.361 408.861 247.832C409.3 247.303 409.546 246.585 409.546 245.837C409.546 245.089 409.3 244.371 408.861 243.842C408.421 243.313 407.826 243.016 407.205 243.016H386.192C385.571 243.016 384.976 243.313 384.536 243.842C384.097 244.371 383.85 245.089 383.85 245.837C383.85 246.585 384.097 247.303 384.536 247.832C384.976 248.361 385.571 248.658 386.192 248.658H407.205Z" fill="#E6E6E6"/>
<path d="M460.188 232.036C460.808 232.035 461.403 231.737 461.841 231.208C462.28 230.679 462.526 229.962 462.526 229.215C462.526 228.467 462.28 227.751 461.841 227.222C461.403 226.693 460.808 226.395 460.188 226.394H386.192C385.572 226.395 384.977 226.693 384.539 227.222C384.101 227.751 383.855 228.467 383.855 229.215C383.855 229.962 384.101 230.679 384.539 231.208C384.977 231.737 385.572 232.035 386.192 232.036H460.188Z" fill="#E6E6E6"/>
<path d="M545.478 248.658C546.1 248.658 546.695 248.361 547.134 247.832C547.573 247.303 547.82 246.585 547.82 245.837C547.82 245.089 547.573 244.371 547.134 243.842C546.695 243.313 546.1 243.016 545.478 243.016H524.466C524.158 243.015 523.854 243.088 523.57 243.23C523.286 243.372 523.027 243.579 522.81 243.841C522.592 244.103 522.42 244.414 522.302 244.756C522.184 245.098 522.123 245.465 522.123 245.836C522.123 246.206 522.184 246.573 522.301 246.915C522.419 247.258 522.591 247.569 522.808 247.831C523.026 248.093 523.284 248.301 523.568 248.443C523.852 248.585 524.157 248.658 524.464 248.658H545.478Z" fill="#E6E6E6"/>
<path d="M598.462 232.036C599.082 232.035 599.677 231.737 600.115 231.208C600.553 230.679 600.799 229.962 600.799 229.215C600.799 228.467 600.553 227.751 600.115 227.222C599.677 226.693 599.082 226.395 598.462 226.394H524.466C524.158 226.393 523.854 226.465 523.569 226.606C523.285 226.747 523.027 226.955 522.809 227.216C522.591 227.478 522.418 227.788 522.3 228.13C522.182 228.472 522.12 228.839 522.12 229.21C522.119 229.58 522.179 229.947 522.296 230.29C522.414 230.632 522.586 230.944 522.803 231.206C523.02 231.468 523.278 231.677 523.562 231.819C523.845 231.962 524.15 232.035 524.457 232.036H598.462Z" fill="#E6E6E6"/>
<path d="M321.914 215.689C322.535 215.69 323.131 215.393 323.571 214.864C324.01 214.335 324.257 213.617 324.257 212.869C324.257 212.121 324.011 211.403 323.572 210.874C323.133 210.345 322.537 210.047 321.916 210.047H247.919C247.297 210.047 246.702 210.344 246.263 210.873C245.824 211.402 245.577 212.12 245.577 212.868C245.577 213.616 245.824 214.334 246.263 214.863C246.702 215.392 247.297 215.689 247.919 215.689H321.914Z" fill="#6B5BD4"/>
<path d="M460.188 215.689C460.809 215.689 461.405 215.392 461.844 214.863C462.283 214.334 462.53 213.616 462.53 212.868C462.53 212.12 462.283 211.402 461.844 210.873C461.405 210.344 460.809 210.047 460.188 210.047H386.192C385.571 210.047 384.976 210.344 384.536 210.873C384.097 211.402 383.85 212.12 383.85 212.868C383.85 213.616 384.097 214.334 384.536 214.863C384.976 215.392 385.571 215.689 386.192 215.689H460.188Z" fill="#6B5BD4"/>
<path d="M598.462 215.689C599.083 215.689 599.678 215.392 600.118 214.863C600.557 214.334 600.804 213.616 600.804 212.868C600.804 212.12 600.557 211.402 600.118 210.873C599.678 210.344 599.083 210.047 598.462 210.047H524.466C523.845 210.047 523.249 210.344 522.81 210.872C522.371 211.401 522.124 212.119 522.123 212.867C522.123 213.615 522.37 214.333 522.808 214.862C523.247 215.391 523.843 215.689 524.464 215.689H598.462Z" fill="#6B5BD4"/>
<path d="M308.668 165.027C309.289 165.026 309.883 164.728 310.322 164.199C310.76 163.67 311.006 162.953 311.006 162.206C311.006 161.459 310.76 160.742 310.322 160.213C309.883 159.684 309.289 159.386 308.668 159.385H261.164C260.857 159.384 260.552 159.456 260.268 159.598C259.984 159.739 259.725 159.946 259.507 160.207C259.289 160.469 259.116 160.78 258.998 161.122C258.88 161.464 258.819 161.83 258.818 162.201C258.818 162.571 258.878 162.938 258.995 163.281C259.112 163.623 259.284 163.935 259.501 164.197C259.718 164.46 259.976 164.668 260.26 164.81C260.544 164.953 260.848 165.026 261.156 165.027H308.668Z" fill="#E6E6E6"/>
<path d="M308.668 148.405C309.289 148.404 309.883 148.106 310.322 147.577C310.76 147.048 311.006 146.331 311.006 145.584C311.006 144.836 310.76 144.12 310.322 143.591C309.883 143.062 309.289 142.764 308.668 142.763H261.164C260.857 142.762 260.552 142.834 260.268 142.975C259.984 143.117 259.725 143.324 259.507 143.585C259.289 143.847 259.116 144.157 258.998 144.499C258.88 144.842 258.819 145.208 258.818 145.579C258.818 145.949 258.878 146.316 258.995 146.659C259.112 147.001 259.284 147.313 259.501 147.575C259.718 147.838 259.976 148.046 260.26 148.188C260.544 148.331 260.848 148.404 261.156 148.405H308.668Z" fill="#E6E6E6"/>
<path d="M284.917 128.916C293.124 128.916 299.778 120.9 299.778 111.012C299.778 101.124 293.124 93.1084 284.917 93.1084C276.709 93.1084 270.055 101.124 270.055 111.012C270.055 120.9 276.709 128.916 284.917 128.916Z" fill="#6B5BD4"/>
<path d="M446.942 165.027C447.563 165.026 448.157 164.728 448.595 164.199C449.034 163.67 449.28 162.953 449.28 162.206C449.28 161.459 449.034 160.742 448.595 160.213C448.157 159.684 447.563 159.386 446.942 159.385H399.438C398.818 159.386 398.223 159.684 397.785 160.213C397.347 160.742 397.1 161.459 397.1 162.206C397.1 162.953 397.347 163.67 397.785 164.199C398.223 164.728 398.818 165.026 399.438 165.027H446.942Z" fill="#E6E6E6"/>
<path d="M446.942 148.405C447.563 148.404 448.157 148.106 448.595 147.577C449.034 147.048 449.28 146.331 449.28 145.584C449.28 144.836 449.034 144.12 448.595 143.591C448.157 143.062 447.563 142.764 446.942 142.763H399.438C398.818 142.764 398.223 143.062 397.785 143.591C397.347 144.12 397.1 144.836 397.1 145.584C397.1 146.331 397.347 147.048 397.785 147.577C398.223 148.106 398.818 148.404 399.438 148.405H446.942Z" fill="#E6E6E6"/>
<path d="M423.19 128.916C431.398 128.916 438.051 120.9 438.051 111.012C438.051 101.124 431.398 93.1084 423.19 93.1084C414.983 93.1084 408.329 101.124 408.329 111.012C408.329 120.9 414.983 128.916 423.19 128.916Z" fill="#6B5BD4"/>
<path d="M585.216 165.027C585.523 165.028 585.828 164.956 586.112 164.814C586.397 164.673 586.655 164.466 586.873 164.204C587.091 163.943 587.264 163.632 587.382 163.29C587.5 162.948 587.561 162.582 587.562 162.211C587.563 161.841 587.502 161.474 587.385 161.131C587.268 160.789 587.096 160.477 586.879 160.215C586.662 159.952 586.404 159.744 586.12 159.602C585.836 159.459 585.532 159.385 585.225 159.385H537.712C537.091 159.386 536.497 159.684 536.059 160.213C535.62 160.742 535.374 161.459 535.374 162.206C535.374 162.953 535.62 163.67 536.059 164.199C536.497 164.728 537.091 165.026 537.712 165.027H585.216Z" fill="#E6E6E6"/>
<path d="M585.216 148.405C585.523 148.406 585.828 148.333 586.112 148.192C586.397 148.051 586.655 147.844 586.873 147.582C587.091 147.321 587.264 147.01 587.382 146.668C587.5 146.326 587.561 145.96 587.562 145.589C587.563 145.219 587.502 144.852 587.385 144.509C587.268 144.167 587.096 143.855 586.879 143.593C586.662 143.33 586.404 143.122 586.12 142.979C585.836 142.837 585.532 142.763 585.225 142.763H537.712C537.091 142.764 536.497 143.062 536.059 143.591C535.62 144.12 535.374 144.836 535.374 145.584C535.374 146.331 535.62 147.048 536.059 147.577C536.497 148.106 537.091 148.404 537.712 148.405H585.216Z" fill="#E6E6E6"/>
<path d="M561.464 128.916C569.671 128.916 576.325 120.9 576.325 111.012C576.325 101.124 569.671 93.1084 561.464 93.1084C553.256 93.1084 546.603 101.124 546.603 111.012C546.603 120.9 553.256 128.916 561.464 128.916Z" fill="#6B5BD4"/>
<path d="M49.7708 478.909H58.5632L62.7457 438.053L49.7694 438.054L49.7708 478.909Z" fill="#FFB6B6"/>
<path d="M47.528 475.451L64.8431 475.45H64.8438C67.7703 475.45 70.5769 476.851 72.6462 479.344C74.7156 481.837 75.8782 485.218 75.8784 488.744V489.176L47.5285 489.177L47.528 475.451Z" fill="#2F2E41"/>
<path d="M79.8916 478.909H88.684L92.8664 438.053L79.8901 438.054L79.8916 478.909Z" fill="#FFB6B6"/>
<path d="M77.6487 475.451L94.9638 475.45H94.9645C97.891 475.45 100.698 476.851 102.767 479.344C104.836 481.837 105.999 485.218 105.999 488.744V489.176L77.6492 489.177L77.6487 475.451Z" fill="#2F2E41"/>
<path d="M113.302 300.925L91.8237 460.75L77.4805 459.886L77.8362 313.133L113.302 300.925Z" fill="#2F2E41"/>
<path d="M55.3989 252.095L107.512 252.967L113.302 300.925L77.8364 320.981L62.4203 456.431L48.7943 455.567L43.8182 287.846L55.3989 252.095Z" fill="#2F2E41"/>
<path d="M86.5218 128.274C95.316 128.274 102.445 119.685 102.445 109.091C102.445 98.496 95.316 89.9072 86.5218 89.9072C77.7275 89.9072 70.5984 98.496 70.5984 109.091C70.5984 119.685 77.7275 128.274 86.5218 128.274Z" fill="#FFB9B9"/>
<path d="M93.9752 139.346L103.169 153.561L98.8261 262.558L64.8083 261.686L59.0179 166.641L66.2555 142.226L68.8746 136.754L93.9752 139.346Z" fill="#E4E4E4"/>
<path d="M109.683 194.545L117.645 231.168L109.683 267.791L122.711 288.718L134.292 222.448C134.292 222.448 125.606 168.385 124.883 162.282C124.159 156.178 122.711 155.306 122.711 155.306L116.921 156.178L109.683 194.545Z" fill="#2F2E41"/>
<path d="M51.7804 208.495L46.7137 219.832L45.2657 239.015L48.1609 260.814L38.0281 280.87L27.8954 225.935L38.7518 155.305H43.0949L51.7804 208.495Z" fill="#2F2E41"/>
<path d="M72.751 114.06L72.3738 121.815C72.3738 121.815 67.7033 109.091 66.9795 96.0112C66.2557 82.9316 78.5602 80.3156 85.798 79.4437C93.0359 78.5717 105.34 84.6755 105.34 91.6513C105.34 98.6271 92.3122 96.8832 87.2457 95.1393C82.1791 93.3953 80.0078 108.219 80.0078 108.219L77.1126 109.091L72.751 114.06Z" fill="#2F2E41"/>
<path d="M111.854 206.752L108.959 239.887L114.75 259.942L118.369 279.126C118.369 279.126 118.369 297.438 103.893 298.309C89.417 299.181 47.4372 297.438 47.4372 297.438C47.4372 297.438 41.6469 296.566 36.5804 282.614C31.5138 268.662 46.7134 255.583 46.7134 255.583L51.0562 237.271L49.6086 214.6L39.4754 155.305L69.5127 136.558L77.1125 225.935L93.3978 139.174L98.8262 143.969L121.987 155.305L111.854 206.752Z" fill="#2F2E41"/>
<path d="M184.839 490H0V488.181H185.113L184.839 490Z" fill="#3F3D56"/>
</g>
<defs>
<clipPath id="clip0_1919_1540">
<rect width="660" height="490" fill="white"/>
</clipPath>
</defs>
</svg>
